<?xml version="1.0" encoding="utf-8"?>
<!-- Generator: Adobe Illustrator 22.0.1, SVG Export Plug-In . SVG Version: 6.00 Build 0)  -->
<svg version="1.1" id="Слой_1" xmlns="http://www.w3.org/2000/svg" xmlns:xlink="http://www.w3.org/1999/xlink" x="0px" y="0px"
	 viewBox="0 0 50 50" style="enable-background:new 0 0 50 50;" xml:space="preserve">
<style type="text/css">
	.st0{fill:#344861;}
</style>
<g>
	<g>
		<path class="st0" d="M23.5,35.1h-1.4V14.2h4.4c3.6,0,6.6,2.7,6.6,6s-2.9,6-6.6,6h-2.9V35.1z M23.5,24.7h2.9c2.8,0,5.1-2,5.1-4.5
			c0-2.5-2.3-4.5-5.1-4.5h-2.9V24.7z"/>
	</g>
	<g>
		<rect x="17.8" y="29.1" class="st0" width="10" height="1.4"/>
	</g>
	<g>
		<path class="st0" d="M50,23.3h-7.9l-0.1-0.6C41,15,35,9,27.3,7.9l-0.6-0.1V0l0.8,0.1c11.9,1.2,21.3,10.6,22.5,22.5L50,23.3z
			 M43.4,21.9h5C47,11.3,38.7,3,28.1,1.6v5C35.9,7.9,42.1,14.1,43.4,21.9z"/>
	</g>
	<g>
		<g>
			<path class="st0" d="M38.8,45.9l-3.9-6.8l0.5-0.4c3.7-2.8,6.1-6.9,6.7-11.4l0.1-0.6H50l-0.1,0.8c-0.7,7.2-4.5,13.8-10.5,18
				L38.8,45.9z M36.8,39.4l2.5,4.3c5-3.8,8.3-9.5,9.1-15.7h-5C42.6,32.6,40.3,36.6,36.8,39.4z"/>
		</g>
		<g>
			<path class="st0" d="M25,50C11.2,50,0,38.8,0,25c0-6.3,2.3-12.2,6.5-16.9c4.2-4.6,9.9-7.4,16-8L23.4,0v7.9l-0.6,0.1
				C14.2,9.1,7.8,16.4,7.8,25c0,9.5,7.7,17.2,17.2,17.2c2.2,0,4.4-0.4,6.4-1.2l0.6-0.2l3.9,6.8l-0.7,0.3C32,49.3,28.6,50,25,50z
				 M21.9,1.6C10.2,3.1,1.4,13,1.4,25C1.4,38,12,48.6,25,48.6c3.1,0,6-0.6,8.9-1.7l-2.5-4.3c-2,0.7-4.2,1.1-6.4,1.1
				C14.7,43.6,6.4,35.3,6.4,25c0-9.1,6.6-16.9,15.5-18.4V1.6z"/>
		</g>
	</g>
</g>
</svg>
