<?xml version="1.0" encoding="utf-8"?>
<!-- Generator: Adobe Illustrator 22.0.1, SVG Export Plug-In . SVG Version: 6.00 Build 0)  -->
<svg version="1.1" id="Слой_1" xmlns="http://www.w3.org/2000/svg" xmlns:xlink="http://www.w3.org/1999/xlink" x="0px" y="0px"
	 viewBox="0 0 45.6 50" style="enable-background:new 0 0 45.6 50;" xml:space="preserve">
<style type="text/css">
	.st0{fill:#344861;}
</style>
<g>
	<g>
		<polygon class="st0" points="23.9,45.4 0,45.4 0,3.9 31.9,3.9 31.9,25.6 30.6,25.6 30.6,5.3 1.4,5.3 1.4,44 23.9,44 		"/>
	</g>
	<g>
		<rect x="11" y="11.2" class="st0" width="10.2" height="1.4"/>
	</g>
	<g>
		<path class="st0" d="M22.1,38.7H5.8v-1.4h16.3V38.7z M22.1,33.5h-2.7v-1.4h2.7V33.5z M17.9,33.5H5.8v-1.4h12.1V33.5z M22.1,28.2
			h-10v-1.4h10V28.2z M10.6,28.2H5.8v-1.4h4.8V28.2z M26.3,23h-3.8v-1.4h3.8V23z M21,23h-3.8v-1.4H21V23z M15.7,23H5.8v-1.4h9.8V23z
			 M26.3,17.8H12.1v-1.4h14.2V17.8z M10.6,17.8H5.8v-1.4h4.8V17.8z"/>
	</g>
	<g>
		<polygon class="st0" points="35.8,23.4 34.4,23.4 34.4,1.4 5.8,1.4 5.8,0 35.8,0 		"/>
	</g>
	<g>
		<path class="st0" d="M35.1,50l-0.3-0.1c-0.4-0.2-10.2-4.6-10.2-10.5v-9.8l-0.1-4.3l1.2,1c0,0,2,1.7,4.5,1.7c2.3,0,4.2-1.6,4.4-1.7
			l0.5-0.5l0.5,0.4c0,0,2,1.7,4.5,1.7c2.4,0,4.4-1.7,4.5-1.7l1.2-1l-0.1,4.2v10c0,5.8-9.7,10.2-10.1,10.4L35.1,50z M26,28.2l0,1.4
			l0,9.9c0,4.4,7.6,8.3,9.1,9.1c1.6-0.8,9-4.6,9-9v-10l0-1.3c-1,0.6-2.5,1.3-4.2,1.3c-2.2,0-4.1-1.1-4.9-1.7
			c-0.8,0.6-2.7,1.7-4.9,1.7C28.4,29.4,26.9,28.8,26,28.2z"/>
	</g>
	<g>
		<polygon class="st0" points="33.6,42.1 29.7,38.1 30.6,37.1 33.6,40.1 39.6,34.2 40.6,35.1 		"/>
	</g>
</g>
</svg>
