<?xml version="1.0" encoding="utf-8"?>
<!-- Generator: Adobe Illustrator 22.0.1, SVG Export Plug-In . SVG Version: 6.00 Build 0)  -->
<svg version="1.1" id="Слой_1" xmlns="http://www.w3.org/2000/svg" xmlns:xlink="http://www.w3.org/1999/xlink" x="0px" y="0px"
	 viewBox="0 0 180 39.6" style="enable-background:new 0 0 180 39.6;" xml:space="preserve">
<style type="text/css">
	.st0{fill:#FFFFFF;}
	.st1{fill:#E72F52;}
	.st2{fill:url(#SVGID_1_);}
	.st3{fill:url(#SVGID_2_);}
	.st4{fill:url(#SVGID_3_);}
	.st5{fill:url(#SVGID_4_);}
	.st6{fill:url(#SVGID_5_);}
	.st7{fill:url(#SVGID_6_);}
	.st8{fill:#F8AC32;}
	.st9{fill:url(#SVGID_7_);}
	.st10{fill:url(#SVGID_8_);}
	.st11{fill:url(#SVGID_9_);}
	.st12{fill:url(#SVGID_10_);}
	.st13{fill:url(#SVGID_11_);}
	.st14{fill:url(#SVGID_12_);}
	.st15{fill:url(#SVGID_13_);}
	.st16{fill:url(#SVGID_14_);}
	.st17{fill:url(#SVGID_15_);}
	.st18{fill:url(#SVGID_16_);}
	.st19{fill:url(#SVGID_17_);}
	.st20{fill:url(#SVGID_18_);}
	.st21{fill:url(#SVGID_19_);}
	.st22{fill:url(#SVGID_20_);}
	.st23{fill:url(#SVGID_21_);}
	.st24{fill:url(#SVGID_22_);}
	.st25{fill:url(#SVGID_23_);}
	.st26{fill:url(#SVGID_24_);}
	.st27{fill:url(#SVGID_25_);}
	.st28{fill:url(#SVGID_26_);}
	.st29{display:none;}
	.st30{display:inline;fill:#FFFFFF;}
</style>
<g>
	<path class="st0" d="M14.6,38.2c1.5,0,3,0.1,3.7-0.4c0.8-0.6,1.1-2,1.1-3.2v-4.2c0-0.9,0.3-1.7,0.8-2.3c0.6-0.7,1.3-1,2.2-1
		c0.9,0,1.7,0.3,2.3,1c0.5,0.6,0.8,1.4,0.8,2.4v7.8h2.7v-2.4c0.2,0.2,0.4,0.5,0.6,0.7c1.3,1.3,2.8,2,4.8,2l0.1,0l0.6-2.8
		c-0.2,0-0.3,0-0.5,0c-1.2,0-2.3-0.4-3-1.2c-0.8-0.8-1.1-1.8-1.1-3.1c0-1.2,0.4-2.2,1.1-3c0.7-0.8,1.7-1.2,2.8-1.2
		c1.3,0,2.3,0.4,3.1,1.3c0.7,0.8,1.1,1.9,1.1,3.4v6.4h2.7v-2.7c0.2,0.3,0.5,0.7,0.9,1c1.4,1.4,2.9,2,4.7,2c1.3,0,2.5-0.3,3.5-0.9
		c0.3-0.2,0.5-0.3,0.8-0.5v1.1h2.6v-7.9c0-1,0.3-1.8,0.9-2.4c0.6-0.6,1.4-1,2.3-1c0.9,0,1.7,0.3,2.3,1c0.6,0.6,0.9,1.4,0.9,2.4v7.9
		h2.6v-7.9c0-1,0.3-1.8,0.9-2.4c0.6-0.6,1.4-1,2.3-1c0.9,0,1.7,0.3,2.3,1c0.6,0.6,0.9,1.4,0.9,2.4v7.9h2.6v-1.8
		c0.2,0.4,0.5,0.7,0.8,1c0.8,0.7,1.9,1.1,3.2,1.1c0.8,0,1.3-0.1,1.5-0.2c0.4-0.1,0.9-0.3,1.5-0.6l1.6-1v1.5l3.3,0
		c1.4,0,2.2,0.1,2.8-0.3c0.8-0.7,1.3-2.1,1.3-3.3v-4.2c0-0.9,0.3-1.7,0.8-2.3c0.6-0.7,1.3-1,2.2-1c0.9,0,1.7,0.3,2.3,1
		c0.5,0.6,0.8,1.4,0.8,2.4v7.8h2.7v-1.8c0.2,0.4,0.5,0.7,0.8,1c0.8,0.7,1.9,1.1,3.2,1.1c0.8,0,1.3-0.1,1.5-0.2
		c0.4-0.1,1-0.2,1.5-0.6l1.6-1.2v1.6h2h0.7h2v-5.8h6.8v5.8h2.7V24.7h-2.7v5.6h-6.8v-5.6h-2H106h-2v7.7c0,1-0.3,1.9-0.9,2.5
		c-0.6,0.7-1.5,1.1-2.5,1.1c-1.1,0-1.9-0.3-2.5-1c-0.6-0.6-0.9-1.6-0.9-3v-7.3h-2.7v2.5c-0.2-0.3-0.4-0.6-0.6-0.9
		c-1.1-1.3-2.5-1.9-4.4-1.9c-1.6,0-2.9,0.5-4,1.7c-1.1,1.1-1.6,2.6-1.6,4.4v2.8c0,1.2-0.1,2.1-0.7,2.6c-0.3,0.2-0.7,0.2-1.2,0.4
		V24.7h-2.7v7.7c0,1-0.3,1.9-0.9,2.5c-0.6,0.7-1.5,1.1-2.5,1.1c-1.1,0-1.9-0.3-2.5-1c-0.6-0.6-0.9-1.6-0.9-3v-7.3h-2.7v2.5
		c-0.2-0.4-0.5-0.8-0.8-1.1c-1.1-1.1-2.4-1.7-4.2-1.7c-1.4,0-2.6,0.6-3.7,1.7l-0.8,0.9L59.6,26c-1-1.1-2.3-1.7-3.8-1.7
		c-1.7,0-3,0.6-4,1.7c-0.2,0.2-0.3,0.4-0.5,0.6c-0.5-0.5-1-1-1.6-1.3c-1.1-0.7-2.4-1-3.8-1c-1.8,0-3.4,0.7-4.7,2.1
		c-0.6,0.6-1,1.2-1.3,1.9c-0.5-1.2-1.4-2.1-2.5-2.8c-1.1-0.7-2.3-1.1-3.7-1.1c-2,0-3.6,0.6-4.8,2c-0.5,0.5-0.8,1-1.1,1.5
		c-0.2-0.5-0.5-1.1-0.9-1.5c-1.1-1.3-2.5-1.9-4.4-1.9c-1.6,0-2.9,0.5-4,1.7c-1.1,1.2-1.6,2.6-1.6,4.4v2.8c0,1.2-0.2,2.1-0.7,2.6
		c-0.2,0.2-0.9,0.3-1.4,0.4v-10c0-2.6-0.7-4.7-2-6.2c-1.4-1.5-3.1-2.2-5.3-2.2c-2.2,0-3.9,0.7-5.3,2.2c-1.3,1.5-2,3.5-2,6.2v12h3.2
		V25.9c0-4.4,2.9-4.9,4.1-4.9c1.2,0,4.1,0.5,4.1,4.9v12.3 M49,34.4c-0.3,0.3-0.6,0.5-1,0.7c-0.7,0.3-1.4,0.5-2.2,0.5
		c-1.1,0-2.1-0.4-2.9-1.2c-0.9-0.8-1.3-1.9-1.3-3c0-1.2,0.4-2.3,1.3-3.1c0.9-0.8,1.8-1.2,2.9-1.2c1,0,1.8,0.2,2.5,0.7
		c0.3,0.2,0.6,0.5,0.8,0.7l1.6-0.9c-0.4,1-0.7,2.1-0.7,3.4v4.3L49,34.4z"/>
	<g>
		<g>
			<path class="st1" d="M143.2,12.5C143.2,12.5,143.2,12.5,143.2,12.5c0-0.3,0.1-0.6,0.1-0.9c0,0,0,0,0,0c0,0,0,0,0,0
				c0.1-1.5,0.4-2.9,0.5-4.3c0.2-1.5,0.4-3,0.6-4.4l-2.8-1.5h0l0,0c0,0,0,0,0,0c0,0,0,0,0,0c0,0,0,0,0,0h0h0c0,0,0,0,0,0h0
				c0,0,0,0,0,0s0,0,0,0c0,0,0,0,0,0c0,0,0,0,0,0c0,0,0,0,0,0c0,0,0,0,0,0c0,0,0,0,0,0c0,0,0,0,0,0c-0.4,2.9-0.8,5.7-1.1,8.6
				c-0.1,1.3-0.2,2.6-0.3,3.9c0,0.7-0.1,1.6,0.3,2.2c0,0.1,0.1,0.1,0.1,0.1c0.9,0.5,1.9,1,2.8,1.5c0,0,0,0,0,0c0,0,0.1,0,0.1,0
				c0.1,0,0.3-0.1,0.4-0.2C142.4,18.6,142.9,14.6,143.2,12.5z"/>
			
				<linearGradient id="SVGID_1_" gradientUnits="userSpaceOnUse" x1="-2516.1401" y1="-512.2778" x2="-2515.9639" y2="-506.4326" gradientTransform="matrix(1 0 0 -1 2658.0801 -495.9171)">
				<stop  offset="0" style="stop-color:#CD132E"/>
				<stop  offset="0.5514" style="stop-color:#BB1C31;stop-opacity:0.4486"/>
				<stop  offset="1" style="stop-color:#B51E33;stop-opacity:0"/>
			</linearGradient>
			<path class="st2" d="M143.2,12.5C143.2,12.5,143.2,12.5,143.2,12.5c0-0.3,0.1-0.6,0.1-0.9c0,0,0,0,0,0c0,0,0,0,0,0
				c0.1-1.5,0.4-2.9,0.5-4.3c0.2-1.5,0.4-3,0.6-4.4l-2.8-1.5h0l0,0c0,0,0,0,0,0c0,0,0,0,0,0c0,0,0,0,0,0h0h0c0,0,0,0,0,0h0
				c0,0,0,0,0,0s0,0,0,0c0,0,0,0,0,0c0,0,0,0,0,0c0,0,0,0,0,0c0,0,0,0,0,0c0,0,0,0,0,0c0,0,0,0,0,0c-0.4,2.9-0.8,5.7-1.1,8.6
				c-0.1,1.3-0.2,2.6-0.3,3.9c0,0.7-0.1,1.6,0.3,2.2c0,0.1,0.1,0.1,0.1,0.1c0.9,0.5,1.9,1,2.8,1.5c0,0,0,0,0,0c0,0,0.1,0,0.1,0
				c0.1,0,0.3-0.1,0.4-0.2C142.4,18.6,142.9,14.6,143.2,12.5z"/>
			
				<linearGradient id="SVGID_2_" gradientUnits="userSpaceOnUse" x1="-2514.7046" y1="-497.9983" x2="-2515.1948" y2="-502.2179" gradientTransform="matrix(1 0 0 -1 2658.0801 -495.9171)">
				<stop  offset="0" style="stop-color:#CD132E"/>
				<stop  offset="0.5514" style="stop-color:#BB1C31;stop-opacity:0.4486"/>
				<stop  offset="1" style="stop-color:#B51E33;stop-opacity:0"/>
			</linearGradient>
			<path class="st3" d="M143.2,12.5C143.2,12.5,143.2,12.5,143.2,12.5c0-0.3,0.1-0.6,0.1-0.9c0,0,0,0,0,0c0,0,0,0,0,0
				c0.1-1.5,0.4-2.9,0.5-4.3c0.2-1.5,0.4-3,0.6-4.4l-2.8-1.5h0l0,0c0,0,0,0,0,0c0,0,0,0,0,0c0,0,0,0,0,0h0h0c0,0,0,0,0,0h0
				c0,0,0,0,0,0s0,0,0,0c0,0,0,0,0,0c0,0,0,0,0,0c0,0,0,0,0,0c0,0,0,0,0,0c0,0,0,0,0,0c0,0,0,0,0,0c-0.4,2.9-0.8,5.7-1.1,8.6
				c-0.1,1.3-0.2,2.6-0.3,3.9c0,0.7-0.1,1.6,0.3,2.2c0,0.1,0.1,0.1,0.1,0.1c0.9,0.5,1.9,1,2.8,1.5c0,0,0,0,0,0c0,0,0.1,0,0.1,0
				c0.1,0,0.3-0.1,0.4-0.2C142.4,18.6,142.9,14.6,143.2,12.5z"/>
			
				<linearGradient id="SVGID_3_" gradientUnits="userSpaceOnUse" x1="-2514.9819" y1="-500.3849" x2="-2516.1643" y2="-510.5622" gradientTransform="matrix(1 0 0 -1 2658.0801 -495.9171)">
				<stop  offset="0" style="stop-color:#E83D64;stop-opacity:0.4"/>
				<stop  offset="0.503" style="stop-color:#E83D64"/>
				<stop  offset="1" style="stop-color:#E83D64;stop-opacity:0.6"/>
			</linearGradient>
			<path class="st4" d="M143.2,12.5C143.2,12.5,143.2,12.5,143.2,12.5c0-0.3,0.1-0.6,0.1-0.9c0,0,0,0,0,0c0,0,0,0,0,0
				c0.1-1.5,0.4-2.9,0.5-4.3c0.2-1.5,0.4-3,0.6-4.4l-2.8-1.5h0l0,0c0,0,0,0,0,0c0,0,0,0,0,0c0,0,0,0,0,0h0h0c0,0,0,0,0,0h0
				c0,0,0,0,0,0s0,0,0,0c0,0,0,0,0,0c0,0,0,0,0,0c0,0,0,0,0,0c0,0,0,0,0,0c0,0,0,0,0,0c0,0,0,0,0,0c-0.4,2.9-0.8,5.7-1.1,8.6
				c-0.1,1.3-0.2,2.6-0.3,3.9c0,0.7-0.1,1.6,0.3,2.2c0,0.1,0.1,0.1,0.1,0.1c0.9,0.5,1.9,1,2.8,1.5c0,0,0,0,0,0c0,0,0.1,0,0.1,0
				c0.1,0,0.3-0.1,0.4-0.2C142.4,18.6,142.9,14.6,143.2,12.5z"/>
		</g>
		<g>
			<path class="st1" d="M136.2,2.3C136.2,2.3,136.2,2.3,136.2,2.3c-0.9-0.5-1.8-1-2.7-1.5c-0.5-0.3-1-0.4-1.7-0.4
				c-0.1,0-0.1,0-0.2,0c0,0,0,0,0,0c-0.1,0-0.2,0-0.3,0c0,0,0,0-0.1,0c-0.1,0-0.2,0-0.2,0c0,0-0.1,0-0.1,0c-0.1,0-0.1,0-0.2,0
				c0,0,0,0-0.1,0c0,0,0,0,0,0c-0.1,0-0.2,0-0.3,0.1c0,0,0,0,0,0c-0.1,0-0.2,0-0.2,0.1c0,0-0.1,0-0.1,0c-0.1,0-0.1,0-0.2,0.1
				c0,0-0.1,0-0.1,0c0,0,0,0-0.1,0c0,0-0.1,0-0.1,0c-0.1,0-0.1,0.1-0.2,0.1c0,0-0.1,0-0.1,0.1c-0.1,0-0.1,0.1-0.2,0.1
				c0,0-0.1,0.1-0.1,0.1c-0.1,0-0.1,0.1-0.2,0.1c0,0-0.1,0.1-0.1,0.1c-0.1,0-0.1,0.1-0.2,0.1c0,0,0,0-0.1,0c0,0,0,0,0,0
				c-0.1,0.1-0.2,0.1-0.3,0.2c0,0,0,0-0.1,0c-0.1,0.1-0.2,0.2-0.3,0.2c0,0-0.1,0-0.1,0.1c-0.1,0.1-0.2,0.1-0.2,0.2
				c0,0-0.1,0-0.1,0.1c-0.1,0.1-0.2,0.2-0.3,0.3c-0.1,0.1-0.2,0.2-0.3,0.3c0,0,0,0,0,0c-0.1,0.1-0.1,0.1-0.2,0.2
				c0,0-0.1,0.1-0.1,0.1c-0.1,0.1-0.2,0.2-0.3,0.3c0,0-0.1,0.1-0.1,0.1c-0.1,0.1-0.1,0.1-0.2,0.2c0,0-0.1,0.1-0.1,0.1
				c0,0.1-0.1,0.1-0.2,0.2c0,0-0.1,0.1-0.1,0.1c0,0.1-0.1,0.1-0.1,0.2c0,0.1-0.1,0.1-0.1,0.2c0,0.1-0.1,0.1-0.1,0.2
				c0,0.1-0.1,0.1-0.1,0.2c0,0.1-0.1,0.1-0.1,0.2c0,0.1-0.1,0.1-0.1,0.2c0,0.1-0.1,0.1-0.1,0.2c0,0.1-0.1,0.1-0.1,0.2
				c0,0.1-0.1,0.1-0.1,0.2c0,0.1-0.1,0.1-0.1,0.2c0,0.1-0.1,0.1-0.1,0.2c0,0.1-0.1,0.1-0.1,0.2c0,0.1-0.1,0.1-0.1,0.2
				c0,0.1-0.1,0.1-0.1,0.2c0,0.1-0.1,0.1-0.1,0.2c0,0.1-0.1,0.1-0.1,0.2c0,0.1-0.1,0.2-0.1,0.2c0,0.1,0,0.1-0.1,0.2
				c0,0.1-0.1,0.2-0.1,0.3c0,0,0,0.1,0,0.1c0,0.1-0.1,0.3-0.1,0.4c-1.8,5.3-1.6,11.2-1.2,16.6c0.3,4.4,1,8.8,1.8,13.1l2.8,1.5
				c0.1,0,0.2,0,0.2-0.1c-0.8-5-1.6-10-1.9-15c-0.3-5.4-0.3-11.4,2-16.4c1.1-2.4,3.9-5.8,6.8-6.1c0,0,0,0,0,0s0,0,0,0c0,0,0,0,0,0
				c0,0,0.1,0,0.2,0c0,0,0.1,0,0.1,0c0,0,0,0,0.1,0c0.5,0,1.4,0.1,2,0.5C136.3,2.4,136.3,2.3,136.2,2.3z"/>
			
				<linearGradient id="SVGID_4_" gradientUnits="userSpaceOnUse" x1="-2520.3137" y1="-500.3263" x2="-2525.6018" y2="-508.3978" gradientTransform="matrix(1 0 0 -1 2658.0801 -495.9171)">
				<stop  offset="0" style="stop-color:#CD132E"/>
				<stop  offset="0.5514" style="stop-color:#BB1C31;stop-opacity:0.4486"/>
				<stop  offset="1" style="stop-color:#B51E33;stop-opacity:0"/>
			</linearGradient>
			<path class="st5" d="M136.2,2.3C136.2,2.3,136.2,2.3,136.2,2.3c-0.9-0.5-1.8-1-2.7-1.5c-0.5-0.3-1-0.4-1.7-0.4
				c-0.1,0-0.1,0-0.2,0c0,0,0,0,0,0c-0.1,0-0.2,0-0.3,0c0,0,0,0-0.1,0c-0.1,0-0.2,0-0.2,0c0,0-0.1,0-0.1,0c-0.1,0-0.1,0-0.2,0
				c0,0,0,0-0.1,0c0,0,0,0,0,0c-0.1,0-0.2,0-0.3,0.1c0,0,0,0,0,0c-0.1,0-0.2,0-0.2,0.1c0,0-0.1,0-0.1,0c-0.1,0-0.1,0-0.2,0.1
				c0,0-0.1,0-0.1,0c0,0,0,0-0.1,0c0,0-0.1,0-0.1,0c-0.1,0-0.1,0.1-0.2,0.1c0,0-0.1,0-0.1,0.1c-0.1,0-0.1,0.1-0.2,0.1
				c0,0-0.1,0.1-0.1,0.1c-0.1,0-0.1,0.1-0.2,0.1c0,0-0.1,0.1-0.1,0.1c-0.1,0-0.1,0.1-0.2,0.1c0,0,0,0-0.1,0c0,0,0,0,0,0
				c-0.1,0.1-0.2,0.1-0.3,0.2c0,0,0,0-0.1,0c-0.1,0.1-0.2,0.2-0.3,0.2c0,0-0.1,0-0.1,0.1c-0.1,0.1-0.2,0.1-0.2,0.2
				c0,0-0.1,0-0.1,0.1c-0.1,0.1-0.2,0.2-0.3,0.3c-0.1,0.1-0.2,0.2-0.3,0.3c0,0,0,0,0,0c-0.1,0.1-0.1,0.1-0.2,0.2
				c0,0-0.1,0.1-0.1,0.1c-0.1,0.1-0.2,0.2-0.3,0.3c0,0-0.1,0.1-0.1,0.1c-0.1,0.1-0.1,0.1-0.2,0.2c0,0-0.1,0.1-0.1,0.1
				c0,0.1-0.1,0.1-0.2,0.2c0,0-0.1,0.1-0.1,0.1c0,0.1-0.1,0.1-0.1,0.2c0,0.1-0.1,0.1-0.1,0.2c0,0.1-0.1,0.1-0.1,0.2
				c0,0.1-0.1,0.1-0.1,0.2c0,0.1-0.1,0.1-0.1,0.2c0,0.1-0.1,0.1-0.1,0.2c0,0.1-0.1,0.1-0.1,0.2c0,0.1-0.1,0.1-0.1,0.2
				c0,0.1-0.1,0.1-0.1,0.2c0,0.1-0.1,0.1-0.1,0.2c0,0.1-0.1,0.1-0.1,0.2c0,0.1-0.1,0.1-0.1,0.2c0,0.1-0.1,0.1-0.1,0.2
				c0,0.1-0.1,0.1-0.1,0.2c0,0.1-0.1,0.1-0.1,0.2c0,0.1-0.1,0.1-0.1,0.2c0,0.1-0.1,0.2-0.1,0.2c0,0.1,0,0.1-0.1,0.2
				c0,0.1-0.1,0.2-0.1,0.3c0,0,0,0.1,0,0.1c0,0.1-0.1,0.3-0.1,0.4c-1.8,5.3-1.6,11.2-1.2,16.6c0.3,4.4,1,8.8,1.8,13.1l2.8,1.5
				c0.1,0,0.2,0,0.2-0.1c-0.8-5-1.6-10-1.9-15c-0.3-5.4-0.3-11.4,2-16.4c1.1-2.4,3.9-5.8,6.8-6.1c0,0,0,0,0,0s0,0,0,0c0,0,0,0,0,0
				c0,0,0.1,0,0.2,0c0,0,0.1,0,0.1,0c0,0,0,0,0.1,0c0.5,0,1.4,0.1,2,0.5C136.3,2.4,136.3,2.3,136.2,2.3z"/>
			
				<linearGradient id="SVGID_5_" gradientUnits="userSpaceOnUse" x1="-2524.958" y1="-533.8337" x2="-2526.5127" y2="-524.3092" gradientTransform="matrix(1 0 0 -1 2658.0801 -495.9171)">
				<stop  offset="0" style="stop-color:#CD132E"/>
				<stop  offset="0.5514" style="stop-color:#BB1C31;stop-opacity:0.4486"/>
				<stop  offset="1" style="stop-color:#B51E33;stop-opacity:0"/>
			</linearGradient>
			<path class="st6" d="M136.2,2.3C136.2,2.3,136.2,2.3,136.2,2.3c-0.9-0.5-1.8-1-2.7-1.5c-0.5-0.3-1-0.4-1.7-0.4
				c-0.1,0-0.1,0-0.2,0c0,0,0,0,0,0c-0.1,0-0.2,0-0.3,0c0,0,0,0-0.1,0c-0.1,0-0.2,0-0.2,0c0,0-0.1,0-0.1,0c-0.1,0-0.1,0-0.2,0
				c0,0,0,0-0.1,0c0,0,0,0,0,0c-0.1,0-0.2,0-0.3,0.1c0,0,0,0,0,0c-0.1,0-0.2,0-0.2,0.1c0,0-0.1,0-0.1,0c-0.1,0-0.1,0-0.2,0.1
				c0,0-0.1,0-0.1,0c0,0,0,0-0.1,0c0,0-0.1,0-0.1,0c-0.1,0-0.1,0.1-0.2,0.1c0,0-0.1,0-0.1,0.1c-0.1,0-0.1,0.1-0.2,0.1
				c0,0-0.1,0.1-0.1,0.1c-0.1,0-0.1,0.1-0.2,0.1c0,0-0.1,0.1-0.1,0.1c-0.1,0-0.1,0.1-0.2,0.1c0,0,0,0-0.1,0c0,0,0,0,0,0
				c-0.1,0.1-0.2,0.1-0.3,0.2c0,0,0,0-0.1,0c-0.1,0.1-0.2,0.2-0.3,0.2c0,0-0.1,0-0.1,0.1c-0.1,0.1-0.2,0.1-0.2,0.2
				c0,0-0.1,0-0.1,0.1c-0.1,0.1-0.2,0.2-0.3,0.3c-0.1,0.1-0.2,0.2-0.3,0.3c0,0,0,0,0,0c-0.1,0.1-0.1,0.1-0.2,0.2
				c0,0-0.1,0.1-0.1,0.1c-0.1,0.1-0.2,0.2-0.3,0.3c0,0-0.1,0.1-0.1,0.1c-0.1,0.1-0.1,0.1-0.2,0.2c0,0-0.1,0.1-0.1,0.1
				c0,0.1-0.1,0.1-0.2,0.2c0,0-0.1,0.1-0.1,0.1c0,0.1-0.1,0.1-0.1,0.2c0,0.1-0.1,0.1-0.1,0.2c0,0.1-0.1,0.1-0.1,0.2
				c0,0.1-0.1,0.1-0.1,0.2c0,0.1-0.1,0.1-0.1,0.2c0,0.1-0.1,0.1-0.1,0.2c0,0.1-0.1,0.1-0.1,0.2c0,0.1-0.1,0.1-0.1,0.2
				c0,0.1-0.1,0.1-0.1,0.2c0,0.1-0.1,0.1-0.1,0.2c0,0.1-0.1,0.1-0.1,0.2c0,0.1-0.1,0.1-0.1,0.2c0,0.1-0.1,0.1-0.1,0.2
				c0,0.1-0.1,0.1-0.1,0.2c0,0.1-0.1,0.1-0.1,0.2c0,0.1-0.1,0.1-0.1,0.2c0,0.1-0.1,0.2-0.1,0.2c0,0.1,0,0.1-0.1,0.2
				c0,0.1-0.1,0.2-0.1,0.3c0,0,0,0.1,0,0.1c0,0.1-0.1,0.3-0.1,0.4c-1.8,5.3-1.6,11.2-1.2,16.6c0.3,4.4,1,8.8,1.8,13.1l2.8,1.5
				c0.1,0,0.2,0,0.2-0.1c-0.8-5-1.6-10-1.9-15c-0.3-5.4-0.3-11.4,2-16.4c1.1-2.4,3.9-5.8,6.8-6.1c0,0,0,0,0,0s0,0,0,0c0,0,0,0,0,0
				c0,0,0.1,0,0.2,0c0,0,0.1,0,0.1,0c0,0,0,0,0.1,0c0.5,0,1.4,0.1,2,0.5C136.3,2.4,136.3,2.3,136.2,2.3z"/>
			
				<linearGradient id="SVGID_6_" gradientUnits="userSpaceOnUse" x1="-2531.0154" y1="-515.5684" x2="-2526.1465" y2="-503.8615" gradientTransform="matrix(1 0 0 -1 2658.0801 -495.9171)">
				<stop  offset="0" style="stop-color:#E83D64;stop-opacity:0.4"/>
				<stop  offset="0.503" style="stop-color:#E83D64"/>
				<stop  offset="1" style="stop-color:#E83D64;stop-opacity:0.6"/>
			</linearGradient>
			<path class="st7" d="M136.2,2.3C136.2,2.3,136.2,2.3,136.2,2.3c-0.9-0.5-1.8-1-2.7-1.5c-0.5-0.3-1-0.4-1.7-0.4
				c-0.1,0-0.1,0-0.2,0c0,0,0,0,0,0c-0.1,0-0.2,0-0.3,0c0,0,0,0-0.1,0c-0.1,0-0.2,0-0.2,0c0,0-0.1,0-0.1,0c-0.1,0-0.1,0-0.2,0
				c0,0,0,0-0.1,0c0,0,0,0,0,0c-0.1,0-0.2,0-0.3,0.1c0,0,0,0,0,0c-0.1,0-0.2,0-0.2,0.1c0,0-0.1,0-0.1,0c-0.1,0-0.1,0-0.2,0.1
				c0,0-0.1,0-0.1,0c0,0,0,0-0.1,0c0,0-0.1,0-0.1,0c-0.1,0-0.1,0.1-0.2,0.1c0,0-0.1,0-0.1,0.1c-0.1,0-0.1,0.1-0.2,0.1
				c0,0-0.1,0.1-0.1,0.1c-0.1,0-0.1,0.1-0.2,0.1c0,0-0.1,0.1-0.1,0.1c-0.1,0-0.1,0.1-0.2,0.1c0,0,0,0-0.1,0c0,0,0,0,0,0
				c-0.1,0.1-0.2,0.1-0.3,0.2c0,0,0,0-0.1,0c-0.1,0.1-0.2,0.2-0.3,0.2c0,0-0.1,0-0.1,0.1c-0.1,0.1-0.2,0.1-0.2,0.2
				c0,0-0.1,0-0.1,0.1c-0.1,0.1-0.2,0.2-0.3,0.3c-0.1,0.1-0.2,0.2-0.3,0.3c0,0,0,0,0,0c-0.1,0.1-0.1,0.1-0.2,0.2
				c0,0-0.1,0.1-0.1,0.1c-0.1,0.1-0.2,0.2-0.3,0.3c0,0-0.1,0.1-0.1,0.1c-0.1,0.1-0.1,0.1-0.2,0.2c0,0-0.1,0.1-0.1,0.1
				c0,0.1-0.1,0.1-0.2,0.2c0,0-0.1,0.1-0.1,0.1c0,0.1-0.1,0.1-0.1,0.2c0,0.1-0.1,0.1-0.1,0.2c0,0.1-0.1,0.1-0.1,0.2
				c0,0.1-0.1,0.1-0.1,0.2c0,0.1-0.1,0.1-0.1,0.2c0,0.1-0.1,0.1-0.1,0.2c0,0.1-0.1,0.1-0.1,0.2c0,0.1-0.1,0.1-0.1,0.2
				c0,0.1-0.1,0.1-0.1,0.2c0,0.1-0.1,0.1-0.1,0.2c0,0.1-0.1,0.1-0.1,0.2c0,0.1-0.1,0.1-0.1,0.2c0,0.1-0.1,0.1-0.1,0.2
				c0,0.1-0.1,0.1-0.1,0.2c0,0.1-0.1,0.1-0.1,0.2c0,0.1-0.1,0.1-0.1,0.2c0,0.1-0.1,0.2-0.1,0.2c0,0.1,0,0.1-0.1,0.2
				c0,0.1-0.1,0.2-0.1,0.3c0,0,0,0.1,0,0.1c0,0.1-0.1,0.3-0.1,0.4c-1.8,5.3-1.6,11.2-1.2,16.6c0.3,4.4,1,8.8,1.8,13.1l2.8,1.5
				c0.1,0,0.2,0,0.2-0.1c-0.8-5-1.6-10-1.9-15c-0.3-5.4-0.3-11.4,2-16.4c1.1-2.4,3.9-5.8,6.8-6.1c0,0,0,0,0,0s0,0,0,0c0,0,0,0,0,0
				c0,0,0.1,0,0.2,0c0,0,0.1,0,0.1,0c0,0,0,0,0.1,0c0.5,0,1.4,0.1,2,0.5C136.3,2.4,136.3,2.3,136.2,2.3z"/>
		</g>
		<g>
			<path class="st8" d="M136.4,2.4c-0.7-0.4-1.5-0.5-2-0.5c0,0,0.1,0,0.1,0c1.6,2.1,1.7,5.6,0.1,7.7c-0.1,0.1-0.1,0.2-0.2,0.3
				c0,0-0.1,0-0.1,0.1c-0.1,0.1-0.1,0.1-0.2,0.2c0,0-0.1,0.1-0.1,0.1c0,0,0,0,0,0c-0.1,0.1-0.1,0.1-0.2,0.2c0,0,0,0,0,0
				c-0.1,0-0.1,0.1-0.2,0.1c0,0,0,0-0.1,0c0,0-0.1,0-0.1,0.1c-0.1,0-0.1,0.1-0.2,0.1c0,0-0.1,0-0.1,0c-0.1,0-0.2,0.1-0.3,0.1
				c-0.1,0-0.1,0.1-0.2,0.1c0,0,0,0-0.1,0c-0.1,0-0.1,0-0.2,0.1c0,0,0,0-0.1,0c-0.1,0-0.1,0-0.2,0c0,0,0,0-0.1,0c0,0-0.1,0-0.1,0
				c-0.1,0-0.1,0-0.2,0c0,0-0.1,0-0.1,0c-0.1,0-0.1,0-0.2,0c0,0-0.1,0-0.1,0c-0.1,0-0.1,0-0.2,0c0,0-0.1,0-0.1,0c-0.1,0-0.1,0-0.2,0
				c-0.1,0-0.1,0-0.2,0c-0.3,0-0.5,0-0.8,0l0,0l0,0c0,0,0,0,0,0h0l0,0c0,0,0,0,0,0c0,0,0,0,0,0c0,0,0,0,0,0c0,0,0,0,0,0h0
				c0,0,0,0,0,0c0,0,0,0,0,0c0,0,0,0,0,0c0,0,0,0,0,0c0,0,0,0,0,0h0c0,0,0,0,0,0c0,0,0,0,0,0s0,0,0,0c0,0,0,0,0,0l2.8,1.5
				c0,0,0,0,0,0c0,0,0,0,0,0c0.3,0,0.6,0,0.9,0c1.2,0,2.5-0.3,3.5-1.2c1.1-0.9,1.7-2.4,1.9-3.8C139,6,138.2,3.5,136.4,2.4z"/>
			
				<linearGradient id="SVGID_7_" gradientUnits="userSpaceOnUse" x1="-2524.9382" y1="-499.92" x2="-2524.3503" y2="-502.607" gradientTransform="matrix(1 0 0 -1 2658.0801 -495.9171)">
				<stop  offset="0" style="stop-color:#E9541F"/>
				<stop  offset="0.9879" style="stop-color:#E9541F;stop-opacity:0"/>
			</linearGradient>
			<path class="st9" d="M136.4,2.4c-0.7-0.4-1.5-0.5-2-0.5c0,0,0.1,0,0.1,0c1.6,2.1,1.7,5.6,0.1,7.7c-0.1,0.1-0.1,0.2-0.2,0.3
				c0,0-0.1,0-0.1,0.1c-0.1,0.1-0.1,0.1-0.2,0.2c0,0-0.1,0.1-0.1,0.1c0,0,0,0,0,0c-0.1,0.1-0.1,0.1-0.2,0.2c0,0,0,0,0,0
				c-0.1,0-0.1,0.1-0.2,0.1c0,0,0,0-0.1,0c0,0-0.1,0-0.1,0.1c-0.1,0-0.1,0.1-0.2,0.1c0,0-0.1,0-0.1,0c-0.1,0-0.2,0.1-0.3,0.1
				c-0.1,0-0.1,0.1-0.2,0.1c0,0,0,0-0.1,0c-0.1,0-0.1,0-0.2,0.1c0,0,0,0-0.1,0c-0.1,0-0.1,0-0.2,0c0,0,0,0-0.1,0c0,0-0.1,0-0.1,0
				c-0.1,0-0.1,0-0.2,0c0,0-0.1,0-0.1,0c-0.1,0-0.1,0-0.2,0c0,0-0.1,0-0.1,0c-0.1,0-0.1,0-0.2,0c0,0-0.1,0-0.1,0c-0.1,0-0.1,0-0.2,0
				c-0.1,0-0.1,0-0.2,0c-0.3,0-0.5,0-0.8,0l0,0l0,0c0,0,0,0,0,0h0l0,0c0,0,0,0,0,0c0,0,0,0,0,0c0,0,0,0,0,0c0,0,0,0,0,0h0
				c0,0,0,0,0,0c0,0,0,0,0,0c0,0,0,0,0,0c0,0,0,0,0,0c0,0,0,0,0,0h0c0,0,0,0,0,0c0,0,0,0,0,0s0,0,0,0c0,0,0,0,0,0l2.8,1.5
				c0,0,0,0,0,0c0,0,0,0,0,0c0.3,0,0.6,0,0.9,0c1.2,0,2.5-0.3,3.5-1.2c1.1-0.9,1.7-2.4,1.9-3.8C139,6,138.2,3.5,136.4,2.4z"/>
			
				<linearGradient id="SVGID_8_" gradientUnits="userSpaceOnUse" x1="-2527.4941" y1="-507.1904" x2="-2525.1902" y2="-505.2264" gradientTransform="matrix(1 0 0 -1 2658.0801 -495.9171)">
				<stop  offset="0" style="stop-color:#E7704E"/>
				<stop  offset="1" style="stop-color:#E7704E;stop-opacity:0"/>
			</linearGradient>
			<path class="st10" d="M136.4,2.4c-0.7-0.4-1.5-0.5-2-0.5c0,0,0.1,0,0.1,0c1.6,2.1,1.7,5.6,0.1,7.7c-0.1,0.1-0.1,0.2-0.2,0.3
				c0,0-0.1,0-0.1,0.1c-0.1,0.1-0.1,0.1-0.2,0.2c0,0-0.1,0.1-0.1,0.1c0,0,0,0,0,0c-0.1,0.1-0.1,0.1-0.2,0.2c0,0,0,0,0,0
				c-0.1,0-0.1,0.1-0.2,0.1c0,0,0,0-0.1,0c0,0-0.1,0-0.1,0.1c-0.1,0-0.1,0.1-0.2,0.1c0,0-0.1,0-0.1,0c-0.1,0-0.2,0.1-0.3,0.1
				c-0.1,0-0.1,0.1-0.2,0.1c0,0,0,0-0.1,0c-0.1,0-0.1,0-0.2,0.1c0,0,0,0-0.1,0c-0.1,0-0.1,0-0.2,0c0,0,0,0-0.1,0c0,0-0.1,0-0.1,0
				c-0.1,0-0.1,0-0.2,0c0,0-0.1,0-0.1,0c-0.1,0-0.1,0-0.2,0c0,0-0.1,0-0.1,0c-0.1,0-0.1,0-0.2,0c0,0-0.1,0-0.1,0c-0.1,0-0.1,0-0.2,0
				c-0.1,0-0.1,0-0.2,0c-0.3,0-0.5,0-0.8,0l0,0l0,0c0,0,0,0,0,0h0l0,0c0,0,0,0,0,0c0,0,0,0,0,0c0,0,0,0,0,0c0,0,0,0,0,0h0
				c0,0,0,0,0,0c0,0,0,0,0,0c0,0,0,0,0,0c0,0,0,0,0,0c0,0,0,0,0,0h0c0,0,0,0,0,0c0,0,0,0,0,0s0,0,0,0c0,0,0,0,0,0l2.8,1.5
				c0,0,0,0,0,0c0,0,0,0,0,0c0.3,0,0.6,0,0.9,0c1.2,0,2.5-0.3,3.5-1.2c1.1-0.9,1.7-2.4,1.9-3.8C139,6,138.2,3.5,136.4,2.4z"/>
			
				<linearGradient id="SVGID_9_" gradientUnits="userSpaceOnUse" x1="-2521.8142" y1="-500.9396" x2="-2524.1382" y2="-506.8844" gradientTransform="matrix(1 0 0 -1 2658.0801 -495.9171)">
				<stop  offset="7.100000e-03" style="stop-color:#F4B861;stop-opacity:0.4"/>
				<stop  offset="0.503" style="stop-color:#F4B861"/>
				<stop  offset="1" style="stop-color:#F4B861;stop-opacity:0.6"/>
			</linearGradient>
			<path class="st11" d="M136.4,2.4c-0.7-0.4-1.5-0.5-2-0.5c0,0,0.1,0,0.1,0c1.6,2.1,1.7,5.6,0.1,7.7c-0.1,0.1-0.1,0.2-0.2,0.3
				c0,0-0.1,0-0.1,0.1c-0.1,0.1-0.1,0.1-0.2,0.2c0,0-0.1,0.1-0.1,0.1c0,0,0,0,0,0c-0.1,0.1-0.1,0.1-0.2,0.2c0,0,0,0,0,0
				c-0.1,0-0.1,0.1-0.2,0.1c0,0,0,0-0.1,0c0,0-0.1,0-0.1,0.1c-0.1,0-0.1,0.1-0.2,0.1c0,0-0.1,0-0.1,0c-0.1,0-0.2,0.1-0.3,0.1
				c-0.1,0-0.1,0.1-0.2,0.1c0,0,0,0-0.1,0c-0.1,0-0.1,0-0.2,0.1c0,0,0,0-0.1,0c-0.1,0-0.1,0-0.2,0c0,0,0,0-0.1,0c0,0-0.1,0-0.1,0
				c-0.1,0-0.1,0-0.2,0c0,0-0.1,0-0.1,0c-0.1,0-0.1,0-0.2,0c0,0-0.1,0-0.1,0c-0.1,0-0.1,0-0.2,0c0,0-0.1,0-0.1,0c-0.1,0-0.1,0-0.2,0
				c-0.1,0-0.1,0-0.2,0c-0.3,0-0.5,0-0.8,0l0,0l0,0c0,0,0,0,0,0h0l0,0c0,0,0,0,0,0c0,0,0,0,0,0c0,0,0,0,0,0c0,0,0,0,0,0h0
				c0,0,0,0,0,0c0,0,0,0,0,0c0,0,0,0,0,0c0,0,0,0,0,0c0,0,0,0,0,0h0c0,0,0,0,0,0c0,0,0,0,0,0s0,0,0,0c0,0,0,0,0,0l2.8,1.5
				c0,0,0,0,0,0c0,0,0,0,0,0c0.3,0,0.6,0,0.9,0c1.2,0,2.5-0.3,3.5-1.2c1.1-0.9,1.7-2.4,1.9-3.8C139,6,138.2,3.5,136.4,2.4z"/>
		</g>
		<g>
			<path class="st1" d="M95.4,19.5C95.4,19.5,95.4,19.5,95.4,19.5c-0.2-0.2-0.3-0.4-0.3-0.5c0,0,0-0.1,0-0.1c0,0,0,0,0,0
				c-0.9-1.3-1.3-2.9-1.4-4.3c-0.1-2.3,0.7-4.6,2-6.5c1.7-2.7,4.4-5,7.4-6c0.6-0.2,1.2-0.3,1.8-0.4c0,0,0,0,0,0s0,0,0,0
				c0.1,0,0.2,0,0.3,0c0.1,0,0.2,0,0.2,0c0,0,0,0,0,0c0.7,0,1.9,0.2,2.5,0.8c-0.2-0.2-0.5-0.4-0.8-0.6c0,0,0,0,0.1,0l-2.8-1.5
				c-0.3-0.2-0.6-0.3-0.9-0.3C103,0,102.7,0,102.3,0c0,0,0,0-0.1,0c0,0,0,0-0.1,0c-0.1,0-0.2,0-0.2,0c0,0-0.1,0-0.1,0
				c-0.1,0-0.2,0-0.3,0c0,0,0,0,0,0c-0.1,0-0.2,0-0.3,0c0,0-0.1,0-0.1,0c-0.1,0-0.1,0-0.2,0c0,0,0,0-0.1,0c0,0,0,0,0,0
				c-0.1,0-0.2,0.1-0.4,0.1c0,0,0,0-0.1,0c-0.1,0-0.2,0.1-0.4,0.1c0,0,0,0,0,0c-0.1,0-0.2,0.1-0.3,0.1c0,0,0,0,0,0
				c-0.1,0-0.2,0.1-0.4,0.1c0,0,0,0,0,0c0,0,0,0,0,0c-0.1,0-0.2,0.1-0.3,0.1c0,0,0,0-0.1,0C98.8,0.9,98.7,1,98.6,1
				c-0.1,0.1-0.2,0.1-0.4,0.2c0,0-0.1,0-0.1,0.1c-0.1,0-0.2,0.1-0.3,0.1c0,0-0.1,0-0.1,0.1c-0.1,0-0.1,0.1-0.2,0.1
				c0,0-0.1,0.1-0.1,0.1c-0.1,0-0.1,0.1-0.2,0.1c0,0,0,0,0,0c-0.1,0-0.1,0.1-0.2,0.1C97,2,97,2,96.9,2.1c-0.1,0-0.2,0.1-0.2,0.2
				c0,0-0.1,0-0.1,0.1c-0.1,0.1-0.2,0.2-0.3,0.2c0,0-0.1,0.1-0.1,0.1C96.1,2.7,96,2.7,96,2.8c0,0-0.1,0.1-0.1,0.1
				c-0.1,0-0.1,0.1-0.2,0.1c0,0-0.1,0.1-0.1,0.1c-0.1,0-0.1,0.1-0.2,0.1c0,0-0.1,0.1-0.1,0.1c-0.1,0.1-0.1,0.1-0.2,0.2
				c0,0-0.1,0.1-0.1,0.1c0,0-0.1,0.1-0.1,0.1c0,0,0,0,0,0c-0.1,0.1-0.2,0.2-0.3,0.3h0c-0.1,0.1-0.2,0.2-0.3,0.3c0,0-0.1,0.1-0.1,0.1
				c-0.1,0.1-0.1,0.2-0.2,0.3c0,0-0.1,0.1-0.1,0.1c-0.1,0.1-0.1,0.2-0.2,0.3c0,0-0.1,0.1-0.1,0.1c-0.1,0.1-0.2,0.3-0.3,0.4
				c0,0,0,0,0,0.1C93,5.9,92.9,6,92.8,6.1c0,0-0.1,0.1-0.1,0.1c-0.1,0.1-0.1,0.2-0.2,0.3c0,0-0.1,0.1-0.1,0.1
				c-0.1,0.1-0.1,0.2-0.2,0.3c0,0,0,0.1-0.1,0.1c-0.1,0.1-0.2,0.3-0.2,0.4c0,0,0,0.1-0.1,0.1c-0.1,0.1-0.1,0.2-0.2,0.3
				c0,0,0,0.1-0.1,0.1c0,0.1-0.1,0.2-0.1,0.3c0,0,0,0.1-0.1,0.1c-0.1,0.1-0.1,0.2-0.2,0.4c0,0,0,0,0,0.1c-0.1,0.1-0.1,0.3-0.2,0.4
				c0,0,0,0.1,0,0.1c0,0.1-0.1,0.2-0.1,0.3c0,0.1,0,0.1,0,0.2c0,0.1-0.1,0.2-0.1,0.3c0,0,0,0.1,0,0.1c0,0.1-0.1,0.3-0.1,0.4
				c-0.6,2.8,0.3,6.9,3,8.4l2.8,1.5c0,0,0,0,0,0c0.3,0.2,0.6,0.3,1,0.4C96.5,20.8,95.8,20,95.4,19.5z M107,1.9c0,0-0.1,0-0.2-0.1
				C106.9,1.9,106.9,1.9,107,1.9z M96.2,20.6C96.2,20.6,96.2,20.5,96.2,20.6C96.2,20.5,96.2,20.6,96.2,20.6z"/>
			
				<linearGradient id="SVGID_10_" gradientUnits="userSpaceOnUse" x1="-2564.9409" y1="-515.5721" x2="-2561.2942" y2="-507.6416" gradientTransform="matrix(1 0 0 -1 2658.0801 -495.9171)">
				<stop  offset="0" style="stop-color:#CD132E"/>
				<stop  offset="0.5514" style="stop-color:#BB1C31;stop-opacity:0.4486"/>
				<stop  offset="1" style="stop-color:#B51E33;stop-opacity:0"/>
			</linearGradient>
			<path class="st12" d="M95.4,19.5C95.4,19.5,95.4,19.5,95.4,19.5c-0.2-0.2-0.3-0.4-0.3-0.5c0,0,0-0.1,0-0.1c0,0,0,0,0,0
				c-0.9-1.3-1.3-2.9-1.4-4.3c-0.1-2.3,0.7-4.6,2-6.5c1.7-2.7,4.4-5,7.4-6c0.6-0.2,1.2-0.3,1.8-0.4c0,0,0,0,0,0s0,0,0,0
				c0.1,0,0.2,0,0.3,0c0.1,0,0.2,0,0.2,0c0,0,0,0,0,0c0.7,0,1.9,0.2,2.5,0.8c-0.2-0.2-0.5-0.4-0.8-0.6c0,0,0,0,0.1,0l-2.8-1.5
				c-0.3-0.2-0.6-0.3-0.9-0.3C103,0,102.7,0,102.3,0c0,0,0,0-0.1,0c0,0,0,0-0.1,0c-0.1,0-0.2,0-0.2,0c0,0-0.1,0-0.1,0
				c-0.1,0-0.2,0-0.3,0c0,0,0,0,0,0c-0.1,0-0.2,0-0.3,0c0,0-0.1,0-0.1,0c-0.1,0-0.1,0-0.2,0c0,0,0,0-0.1,0c0,0,0,0,0,0
				c-0.1,0-0.2,0.1-0.4,0.1c0,0,0,0-0.1,0c-0.1,0-0.2,0.1-0.4,0.1c0,0,0,0,0,0c-0.1,0-0.2,0.1-0.3,0.1c0,0,0,0,0,0
				c-0.1,0-0.2,0.1-0.4,0.1c0,0,0,0,0,0c0,0,0,0,0,0c-0.1,0-0.2,0.1-0.3,0.1c0,0,0,0-0.1,0C98.8,0.9,98.7,1,98.6,1
				c-0.1,0.1-0.2,0.1-0.4,0.2c0,0-0.1,0-0.1,0.1c-0.1,0-0.2,0.1-0.3,0.1c0,0-0.1,0-0.1,0.1c-0.1,0-0.1,0.1-0.2,0.1
				c0,0-0.1,0.1-0.1,0.1c-0.1,0-0.1,0.1-0.2,0.1c0,0,0,0,0,0c-0.1,0-0.1,0.1-0.2,0.1C97,2,97,2,96.9,2.1c-0.1,0-0.2,0.1-0.2,0.2
				c0,0-0.1,0-0.1,0.1c-0.1,0.1-0.2,0.2-0.3,0.2c0,0-0.1,0.1-0.1,0.1C96.1,2.7,96,2.7,96,2.8c0,0-0.1,0.1-0.1,0.1
				c-0.1,0-0.1,0.1-0.2,0.1c0,0-0.1,0.1-0.1,0.1c-0.1,0-0.1,0.1-0.2,0.1c0,0-0.1,0.1-0.1,0.1c-0.1,0.1-0.1,0.1-0.2,0.2
				c0,0-0.1,0.1-0.1,0.1c0,0-0.1,0.1-0.1,0.1c0,0,0,0,0,0c-0.1,0.1-0.2,0.2-0.3,0.3h0c-0.1,0.1-0.2,0.2-0.3,0.3c0,0-0.1,0.1-0.1,0.1
				c-0.1,0.1-0.1,0.2-0.2,0.3c0,0-0.1,0.1-0.1,0.1c-0.1,0.1-0.1,0.2-0.2,0.3c0,0-0.1,0.1-0.1,0.1c-0.1,0.1-0.2,0.3-0.3,0.4
				c0,0,0,0,0,0.1C93,5.9,92.9,6,92.8,6.1c0,0-0.1,0.1-0.1,0.1c-0.1,0.1-0.1,0.2-0.2,0.3c0,0-0.1,0.1-0.1,0.1
				c-0.1,0.1-0.1,0.2-0.2,0.3c0,0,0,0.1-0.1,0.1c-0.1,0.1-0.2,0.3-0.2,0.4c0,0,0,0.1-0.1,0.1c-0.1,0.1-0.1,0.2-0.2,0.3
				c0,0,0,0.1-0.1,0.1c0,0.1-0.1,0.2-0.1,0.3c0,0,0,0.1-0.1,0.1c-0.1,0.1-0.1,0.2-0.2,0.4c0,0,0,0,0,0.1c-0.1,0.1-0.1,0.3-0.2,0.4
				c0,0,0,0.1,0,0.1c0,0.1-0.1,0.2-0.1,0.3c0,0.1,0,0.1,0,0.2c0,0.1-0.1,0.2-0.1,0.3c0,0,0,0.1,0,0.1c0,0.1-0.1,0.3-0.1,0.4
				c-0.6,2.8,0.3,6.9,3,8.4l2.8,1.5c0,0,0,0,0,0c0.3,0.2,0.6,0.3,1,0.4C96.5,20.8,95.8,20,95.4,19.5z M107,1.9c0,0-0.1,0-0.2-0.1
				C106.9,1.9,106.9,1.9,107,1.9z M96.2,20.6C96.2,20.6,96.2,20.5,96.2,20.6C96.2,20.5,96.2,20.6,96.2,20.6z"/>
			
				<linearGradient id="SVGID_11_" gradientUnits="userSpaceOnUse" x1="-2560.1519" y1="-506.799" x2="-2550.3855" y2="-498.7122" gradientTransform="matrix(1 0 0 -1 2658.0801 -495.9171)">
				<stop  offset="0" style="stop-color:#B51E33;stop-opacity:0"/>
				<stop  offset="1" style="stop-color:#CD132E"/>
			</linearGradient>
			<path class="st13" d="M95.4,19.5C95.4,19.5,95.4,19.5,95.4,19.5c-0.2-0.2-0.3-0.4-0.3-0.5c0,0,0-0.1,0-0.1c0,0,0,0,0,0
				c-0.9-1.3-1.3-2.9-1.4-4.3c-0.1-2.3,0.7-4.6,2-6.5c1.7-2.7,4.4-5,7.4-6c0.6-0.2,1.2-0.3,1.8-0.4c0,0,0,0,0,0s0,0,0,0
				c0.1,0,0.2,0,0.3,0c0.1,0,0.2,0,0.2,0c0,0,0,0,0,0c0.7,0,1.9,0.2,2.5,0.8c-0.2-0.2-0.5-0.4-0.8-0.6c0,0,0,0,0.1,0l-2.8-1.5
				c-0.3-0.2-0.6-0.3-0.9-0.3C103,0,102.7,0,102.3,0c0,0,0,0-0.1,0c0,0,0,0-0.1,0c-0.1,0-0.2,0-0.2,0c0,0-0.1,0-0.1,0
				c-0.1,0-0.2,0-0.3,0c0,0,0,0,0,0c-0.1,0-0.2,0-0.3,0c0,0-0.1,0-0.1,0c-0.1,0-0.1,0-0.2,0c0,0,0,0-0.1,0c0,0,0,0,0,0
				c-0.1,0-0.2,0.1-0.4,0.1c0,0,0,0-0.1,0c-0.1,0-0.2,0.1-0.4,0.1c0,0,0,0,0,0c-0.1,0-0.2,0.1-0.3,0.1c0,0,0,0,0,0
				c-0.1,0-0.2,0.1-0.4,0.1c0,0,0,0,0,0c0,0,0,0,0,0c-0.1,0-0.2,0.1-0.3,0.1c0,0,0,0-0.1,0C98.8,0.9,98.7,1,98.6,1
				c-0.1,0.1-0.2,0.1-0.4,0.2c0,0-0.1,0-0.1,0.1c-0.1,0-0.2,0.1-0.3,0.1c0,0-0.1,0-0.1,0.1c-0.1,0-0.1,0.1-0.2,0.1
				c0,0-0.1,0.1-0.1,0.1c-0.1,0-0.1,0.1-0.2,0.1c0,0,0,0,0,0c-0.1,0-0.1,0.1-0.2,0.1C97,2,97,2,96.9,2.1c-0.1,0-0.2,0.1-0.2,0.2
				c0,0-0.1,0-0.1,0.1c-0.1,0.1-0.2,0.2-0.3,0.2c0,0-0.1,0.1-0.1,0.1C96.1,2.7,96,2.7,96,2.8c0,0-0.1,0.1-0.1,0.1
				c-0.1,0-0.1,0.1-0.2,0.1c0,0-0.1,0.1-0.1,0.1c-0.1,0-0.1,0.1-0.2,0.1c0,0-0.1,0.1-0.1,0.1c-0.1,0.1-0.1,0.1-0.2,0.2
				c0,0-0.1,0.1-0.1,0.1c0,0-0.1,0.1-0.1,0.1c0,0,0,0,0,0c-0.1,0.1-0.2,0.2-0.3,0.3h0c-0.1,0.1-0.2,0.2-0.3,0.3c0,0-0.1,0.1-0.1,0.1
				c-0.1,0.1-0.1,0.2-0.2,0.3c0,0-0.1,0.1-0.1,0.1c-0.1,0.1-0.1,0.2-0.2,0.3c0,0-0.1,0.1-0.1,0.1c-0.1,0.1-0.2,0.3-0.3,0.4
				c0,0,0,0,0,0.1C93,5.9,92.9,6,92.8,6.1c0,0-0.1,0.1-0.1,0.1c-0.1,0.1-0.1,0.2-0.2,0.3c0,0-0.1,0.1-0.1,0.1
				c-0.1,0.1-0.1,0.2-0.2,0.3c0,0,0,0.1-0.1,0.1c-0.1,0.1-0.2,0.3-0.2,0.4c0,0,0,0.1-0.1,0.1c-0.1,0.1-0.1,0.2-0.2,0.3
				c0,0,0,0.1-0.1,0.1c0,0.1-0.1,0.2-0.1,0.3c0,0,0,0.1-0.1,0.1c-0.1,0.1-0.1,0.2-0.2,0.4c0,0,0,0,0,0.1c-0.1,0.1-0.1,0.3-0.2,0.4
				c0,0,0,0.1,0,0.1c0,0.1-0.1,0.2-0.1,0.3c0,0.1,0,0.1,0,0.2c0,0.1-0.1,0.2-0.1,0.3c0,0,0,0.1,0,0.1c0,0.1-0.1,0.3-0.1,0.4
				c-0.6,2.8,0.3,6.9,3,8.4l2.8,1.5c0,0,0,0,0,0c0.3,0.2,0.6,0.3,1,0.4C96.5,20.8,95.8,20,95.4,19.5z M107,1.9c0,0-0.1,0-0.2-0.1
				C106.9,1.9,106.9,1.9,107,1.9z M96.2,20.6C96.2,20.6,96.2,20.5,96.2,20.6C96.2,20.5,96.2,20.6,96.2,20.6z"/>
			
				<linearGradient id="SVGID_12_" gradientUnits="userSpaceOnUse" x1="-2565.1479" y1="-512.2587" x2="-2553.6731" y2="-497.6494" gradientTransform="matrix(1 0 0 -1 2658.0801 -495.9171)">
				<stop  offset="0" style="stop-color:#E83D64;stop-opacity:0.4"/>
				<stop  offset="0.503" style="stop-color:#E83D64"/>
				<stop  offset="1" style="stop-color:#E83D64;stop-opacity:0.6"/>
			</linearGradient>
			<path class="st14" d="M95.4,19.5C95.4,19.5,95.4,19.5,95.4,19.5c-0.2-0.2-0.3-0.4-0.3-0.5c0,0,0-0.1,0-0.1c0,0,0,0,0,0
				c-0.9-1.3-1.3-2.9-1.4-4.3c-0.1-2.3,0.7-4.6,2-6.5c1.7-2.7,4.4-5,7.4-6c0.6-0.2,1.2-0.3,1.8-0.4c0,0,0,0,0,0s0,0,0,0
				c0.1,0,0.2,0,0.3,0c0.1,0,0.2,0,0.2,0c0,0,0,0,0,0c0.7,0,1.9,0.2,2.5,0.8c-0.2-0.2-0.5-0.4-0.8-0.6c0,0,0,0,0.1,0l-2.8-1.5
				c-0.3-0.2-0.6-0.3-0.9-0.3C103,0,102.7,0,102.3,0c0,0,0,0-0.1,0c0,0,0,0-0.1,0c-0.1,0-0.2,0-0.2,0c0,0-0.1,0-0.1,0
				c-0.1,0-0.2,0-0.3,0c0,0,0,0,0,0c-0.1,0-0.2,0-0.3,0c0,0-0.1,0-0.1,0c-0.1,0-0.1,0-0.2,0c0,0,0,0-0.1,0c0,0,0,0,0,0
				c-0.1,0-0.2,0.1-0.4,0.1c0,0,0,0-0.1,0c-0.1,0-0.2,0.1-0.4,0.1c0,0,0,0,0,0c-0.1,0-0.2,0.1-0.3,0.1c0,0,0,0,0,0
				c-0.1,0-0.2,0.1-0.4,0.1c0,0,0,0,0,0c0,0,0,0,0,0c-0.1,0-0.2,0.1-0.3,0.1c0,0,0,0-0.1,0C98.8,0.9,98.7,1,98.6,1
				c-0.1,0.1-0.2,0.1-0.4,0.2c0,0-0.1,0-0.1,0.1c-0.1,0-0.2,0.1-0.3,0.1c0,0-0.1,0-0.1,0.1c-0.1,0-0.1,0.1-0.2,0.1
				c0,0-0.1,0.1-0.1,0.1c-0.1,0-0.1,0.1-0.2,0.1c0,0,0,0,0,0c-0.1,0-0.1,0.1-0.2,0.1C97,2,97,2,96.9,2.1c-0.1,0-0.2,0.1-0.2,0.2
				c0,0-0.1,0-0.1,0.1c-0.1,0.1-0.2,0.2-0.3,0.2c0,0-0.1,0.1-0.1,0.1C96.1,2.7,96,2.7,96,2.8c0,0-0.1,0.1-0.1,0.1
				c-0.1,0-0.1,0.1-0.2,0.1c0,0-0.1,0.1-0.1,0.1c-0.1,0-0.1,0.1-0.2,0.1c0,0-0.1,0.1-0.1,0.1c-0.1,0.1-0.1,0.1-0.2,0.2
				c0,0-0.1,0.1-0.1,0.1c0,0-0.1,0.1-0.1,0.1c0,0,0,0,0,0c-0.1,0.1-0.2,0.2-0.3,0.3h0c-0.1,0.1-0.2,0.2-0.3,0.3c0,0-0.1,0.1-0.1,0.1
				c-0.1,0.1-0.1,0.2-0.2,0.3c0,0-0.1,0.1-0.1,0.1c-0.1,0.1-0.1,0.2-0.2,0.3c0,0-0.1,0.1-0.1,0.1c-0.1,0.1-0.2,0.3-0.3,0.4
				c0,0,0,0,0,0.1C93,5.9,92.9,6,92.8,6.1c0,0-0.1,0.1-0.1,0.1c-0.1,0.1-0.1,0.2-0.2,0.3c0,0-0.1,0.1-0.1,0.1
				c-0.1,0.1-0.1,0.2-0.2,0.3c0,0,0,0.1-0.1,0.1c-0.1,0.1-0.2,0.3-0.2,0.4c0,0,0,0.1-0.1,0.1c-0.1,0.1-0.1,0.2-0.2,0.3
				c0,0,0,0.1-0.1,0.1c0,0.1-0.1,0.2-0.1,0.3c0,0,0,0.1-0.1,0.1c-0.1,0.1-0.1,0.2-0.2,0.4c0,0,0,0,0,0.1c-0.1,0.1-0.1,0.3-0.2,0.4
				c0,0,0,0.1,0,0.1c0,0.1-0.1,0.2-0.1,0.3c0,0.1,0,0.1,0,0.2c0,0.1-0.1,0.2-0.1,0.3c0,0,0,0.1,0,0.1c0,0.1-0.1,0.3-0.1,0.4
				c-0.6,2.8,0.3,6.9,3,8.4l2.8,1.5c0,0,0,0,0,0c0.3,0.2,0.6,0.3,1,0.4C96.5,20.8,95.8,20,95.4,19.5z M107,1.9c0,0-0.1,0-0.2-0.1
				C106.9,1.9,106.9,1.9,107,1.9z M96.2,20.6C96.2,20.6,96.2,20.5,96.2,20.6C96.2,20.5,96.2,20.6,96.2,20.6z"/>
		</g>
		<g>
			<path class="st8" d="M109.9,12.4L109.9,12.4L109.9,12.4C109.9,12.4,109.9,12.4,109.9,12.4C109.9,12.4,109.9,12.4,109.9,12.4
				c0.1-0.1,0.9-1,1.8-0.4c0,0-0.1-0.1-0.1-0.1c-0.1-0.1-0.2-0.2-0.3-0.2l0,0c-0.5-0.3-0.9-0.5-1.4-0.8c-0.5-0.3-0.9-0.5-1.4-0.8
				c-0.2-0.1-0.3-0.1-0.5-0.1h0c0,0,0,0,0,0c0,0,0,0,0,0c0,0,0,0,0,0c0,0,0,0,0,0c0,0,0,0,0,0c0,0,0,0,0,0c0,0-0.1,0-0.1,0
				c0,0,0,0,0,0c0,0,0,0,0,0c0,0,0,0-0.1,0c0,0,0,0,0,0c0,0,0,0-0.1,0c0,0,0,0,0,0c0,0,0,0,0,0c0,0,0,0-0.1,0c0,0,0,0,0,0
				c0,0-0.1,0-0.1,0.1c0,0,0,0,0,0c0,0,0,0-0.1,0.1c0,0,0,0,0,0c0,0,0,0-0.1,0c0,0,0,0,0,0c0,0,0,0,0,0c-0.1,0-0.1,0.1-0.2,0.1
				c0,0,0,0,0,0c-0.1,0.1-0.1,0.1-0.2,0.2c-1.1,1.2-2.2,2.5-3.4,3.7c-0.1,0.1-0.2,0.2-0.3,0.3c0,0,0,0,0,0c-0.1,0.1-0.2,0.2-0.3,0.3
				c0,0,0,0,0,0c-0.1,0.1-0.2,0.2-0.3,0.3c0,0,0,0,0,0c-0.1,0.1-0.2,0.2-0.3,0.3c0,0,0,0-0.1,0.1c-0.1,0.1-0.2,0.2-0.3,0.3
				c0,0,0,0,0,0c-0.1,0.1-0.2,0.2-0.3,0.3c0,0,0,0-0.1,0.1c-0.1,0.1-0.2,0.2-0.3,0.3c0,0,0,0,0,0c-0.1,0.1-0.2,0.2-0.3,0.2
				c0,0,0,0-0.1,0.1c-0.1,0.1-0.2,0.2-0.3,0.3c0,0,0,0-0.1,0c-0.1,0.1-0.2,0.2-0.3,0.2c0,0,0,0-0.1,0c-0.1,0.1-0.2,0.2-0.3,0.3
				c0,0-0.1,0-0.1,0.1c-0.1,0.1-0.2,0.1-0.3,0.2c0,0,0,0-0.1,0c-0.1,0.1-0.2,0.1-0.3,0.2c0,0-0.1,0-0.1,0c-0.1,0.1-0.2,0.1-0.3,0.1
				c0,0-0.1,0-0.1,0.1c-0.1,0.1-0.2,0.1-0.3,0.2c0,0,0,0,0,0c-0.1,0.1-0.2,0.1-0.3,0.2c0,0-0.1,0-0.1,0.1c0,0-0.1,0-0.1,0.1
				c0,0-0.1,0-0.1,0.1c0,0-0.1,0-0.1,0c0,0-0.1,0-0.1,0c0,0-0.1,0-0.1,0c0,0-0.1,0-0.1,0c0,0-0.1,0-0.1,0c-0.1,0-0.1,0-0.2,0
				c0,0-0.1,0-0.1,0c-0.1,0-0.1,0-0.2,0c0,0,0,0-0.1,0c-0.1,0-0.2,0-0.3,0c0,0-0.1,0-0.1,0c-0.1,0-0.1,0-0.2,0c-0.1,0-0.2,0-0.3,0
				c0.4,0.5,1.2,1.4,2.2,1.6c0,0-0.1,0-0.1,0c0.1,0,0.2,0.1,0.3,0.1c0.2,0,0.5,0.1,0.8,0.1c1.7,0,3.3-1.1,4.7-2.1
				c1.6-1.2,3-2.6,4.4-4.1C108.3,14.1,109.1,13.2,109.9,12.4C109.9,12.4,109.9,12.4,109.9,12.4z M111.2,11.6
				C111.2,11.6,111.1,11.6,111.2,11.6C111.1,11.6,111.2,11.6,111.2,11.6z"/>
			
				<linearGradient id="SVGID_13_" gradientUnits="userSpaceOnUse" x1="-2560.6003" y1="-516.6855" x2="-2555.8738" y2="-512.8308" gradientTransform="matrix(1 0 0 -1 2658.0801 -495.9171)">
				<stop  offset="0" style="stop-color:#E9541F"/>
				<stop  offset="0.9879" style="stop-color:#E9541F;stop-opacity:0"/>
			</linearGradient>
			<path class="st15" d="M109.9,12.4L109.9,12.4L109.9,12.4C109.9,12.4,109.9,12.4,109.9,12.4C109.9,12.4,109.9,12.4,109.9,12.4
				c0.1-0.1,0.9-1,1.8-0.4c0,0-0.1-0.1-0.1-0.1c-0.1-0.1-0.2-0.2-0.3-0.2l0,0c-0.5-0.3-0.9-0.5-1.4-0.8c-0.5-0.3-0.9-0.5-1.4-0.8
				c-0.2-0.1-0.3-0.1-0.5-0.1h0c0,0,0,0,0,0c0,0,0,0,0,0c0,0,0,0,0,0c0,0,0,0,0,0c0,0,0,0,0,0c0,0,0,0,0,0c0,0-0.1,0-0.1,0
				c0,0,0,0,0,0c0,0,0,0,0,0c0,0,0,0-0.1,0c0,0,0,0,0,0c0,0,0,0-0.1,0c0,0,0,0,0,0c0,0,0,0,0,0c0,0,0,0-0.1,0c0,0,0,0,0,0
				c0,0-0.1,0-0.1,0.1c0,0,0,0,0,0c0,0,0,0-0.1,0.1c0,0,0,0,0,0c0,0,0,0-0.1,0c0,0,0,0,0,0c0,0,0,0,0,0c-0.1,0-0.1,0.1-0.2,0.1
				c0,0,0,0,0,0c-0.1,0.1-0.1,0.1-0.2,0.2c-1.1,1.2-2.2,2.5-3.4,3.7c-0.1,0.1-0.2,0.2-0.3,0.3c0,0,0,0,0,0c-0.1,0.1-0.2,0.2-0.3,0.3
				c0,0,0,0,0,0c-0.1,0.1-0.2,0.2-0.3,0.3c0,0,0,0,0,0c-0.1,0.1-0.2,0.2-0.3,0.3c0,0,0,0-0.1,0.1c-0.1,0.1-0.2,0.2-0.3,0.3
				c0,0,0,0,0,0c-0.1,0.1-0.2,0.2-0.3,0.3c0,0,0,0-0.1,0.1c-0.1,0.1-0.2,0.2-0.3,0.3c0,0,0,0,0,0c-0.1,0.1-0.2,0.2-0.3,0.2
				c0,0,0,0-0.1,0.1c-0.1,0.1-0.2,0.2-0.3,0.3c0,0,0,0-0.1,0c-0.1,0.1-0.2,0.2-0.3,0.2c0,0,0,0-0.1,0c-0.1,0.1-0.2,0.2-0.3,0.3
				c0,0-0.1,0-0.1,0.1c-0.1,0.1-0.2,0.1-0.3,0.2c0,0,0,0-0.1,0c-0.1,0.1-0.2,0.1-0.3,0.2c0,0-0.1,0-0.1,0c-0.1,0.1-0.2,0.1-0.3,0.1
				c0,0-0.1,0-0.1,0.1c-0.1,0.1-0.2,0.1-0.3,0.2c0,0,0,0,0,0c-0.1,0.1-0.2,0.1-0.3,0.2c0,0-0.1,0-0.1,0.1c0,0-0.1,0-0.1,0.1
				c0,0-0.1,0-0.1,0.1c0,0-0.1,0-0.1,0c0,0-0.1,0-0.1,0c0,0-0.1,0-0.1,0c0,0-0.1,0-0.1,0c0,0-0.1,0-0.1,0c-0.1,0-0.1,0-0.2,0
				c0,0-0.1,0-0.1,0c-0.1,0-0.1,0-0.2,0c0,0,0,0-0.1,0c-0.1,0-0.2,0-0.3,0c0,0-0.1,0-0.1,0c-0.1,0-0.1,0-0.2,0c-0.1,0-0.2,0-0.3,0
				c0.4,0.5,1.2,1.4,2.2,1.6c0,0-0.1,0-0.1,0c0.1,0,0.2,0.1,0.3,0.1c0.2,0,0.5,0.1,0.8,0.1c1.7,0,3.3-1.1,4.7-2.1
				c1.6-1.2,3-2.6,4.4-4.1C108.3,14.1,109.1,13.2,109.9,12.4C109.9,12.4,109.9,12.4,109.9,12.4z M111.2,11.6
				C111.2,11.6,111.1,11.6,111.2,11.6C111.1,11.6,111.2,11.6,111.2,11.6z"/>
			
				<linearGradient id="SVGID_14_" gradientUnits="userSpaceOnUse" x1="-2550.4004" y1="-505.7036" x2="-2554.7612" y2="-511.9292" gradientTransform="matrix(1 0 0 -1 2658.0801 -495.9171)">
				<stop  offset="0" style="stop-color:#E7704E"/>
				<stop  offset="1" style="stop-color:#E7704E;stop-opacity:0"/>
			</linearGradient>
			<path class="st16" d="M109.9,12.4L109.9,12.4L109.9,12.4C109.9,12.4,109.9,12.4,109.9,12.4C109.9,12.4,109.9,12.4,109.9,12.4
				c0.1-0.1,0.9-1,1.8-0.4c0,0-0.1-0.1-0.1-0.1c-0.1-0.1-0.2-0.2-0.3-0.2l0,0c-0.5-0.3-0.9-0.5-1.4-0.8c-0.5-0.3-0.9-0.5-1.4-0.8
				c-0.2-0.1-0.3-0.1-0.5-0.1h0c0,0,0,0,0,0c0,0,0,0,0,0c0,0,0,0,0,0c0,0,0,0,0,0c0,0,0,0,0,0c0,0,0,0,0,0c0,0-0.1,0-0.1,0
				c0,0,0,0,0,0c0,0,0,0,0,0c0,0,0,0-0.1,0c0,0,0,0,0,0c0,0,0,0-0.1,0c0,0,0,0,0,0c0,0,0,0,0,0c0,0,0,0-0.1,0c0,0,0,0,0,0
				c0,0-0.1,0-0.1,0.1c0,0,0,0,0,0c0,0,0,0-0.1,0.1c0,0,0,0,0,0c0,0,0,0-0.1,0c0,0,0,0,0,0c0,0,0,0,0,0c-0.1,0-0.1,0.1-0.2,0.1
				c0,0,0,0,0,0c-0.1,0.1-0.1,0.1-0.2,0.2c-1.1,1.2-2.2,2.5-3.4,3.7c-0.1,0.1-0.2,0.2-0.3,0.3c0,0,0,0,0,0c-0.1,0.1-0.2,0.2-0.3,0.3
				c0,0,0,0,0,0c-0.1,0.1-0.2,0.2-0.3,0.3c0,0,0,0,0,0c-0.1,0.1-0.2,0.2-0.3,0.3c0,0,0,0-0.1,0.1c-0.1,0.1-0.2,0.2-0.3,0.3
				c0,0,0,0,0,0c-0.1,0.1-0.2,0.2-0.3,0.3c0,0,0,0-0.1,0.1c-0.1,0.1-0.2,0.2-0.3,0.3c0,0,0,0,0,0c-0.1,0.1-0.2,0.2-0.3,0.2
				c0,0,0,0-0.1,0.1c-0.1,0.1-0.2,0.2-0.3,0.3c0,0,0,0-0.1,0c-0.1,0.1-0.2,0.2-0.3,0.2c0,0,0,0-0.1,0c-0.1,0.1-0.2,0.2-0.3,0.3
				c0,0-0.1,0-0.1,0.1c-0.1,0.1-0.2,0.1-0.3,0.2c0,0,0,0-0.1,0c-0.1,0.1-0.2,0.1-0.3,0.2c0,0-0.1,0-0.1,0c-0.1,0.1-0.2,0.1-0.3,0.1
				c0,0-0.1,0-0.1,0.1c-0.1,0.1-0.2,0.1-0.3,0.2c0,0,0,0,0,0c-0.1,0.1-0.2,0.1-0.3,0.2c0,0-0.1,0-0.1,0.1c0,0-0.1,0-0.1,0.1
				c0,0-0.1,0-0.1,0.1c0,0-0.1,0-0.1,0c0,0-0.1,0-0.1,0c0,0-0.1,0-0.1,0c0,0-0.1,0-0.1,0c0,0-0.1,0-0.1,0c-0.1,0-0.1,0-0.2,0
				c0,0-0.1,0-0.1,0c-0.1,0-0.1,0-0.2,0c0,0,0,0-0.1,0c-0.1,0-0.2,0-0.3,0c0,0-0.1,0-0.1,0c-0.1,0-0.1,0-0.2,0c-0.1,0-0.2,0-0.3,0
				c0.4,0.5,1.2,1.4,2.2,1.6c0,0-0.1,0-0.1,0c0.1,0,0.2,0.1,0.3,0.1c0.2,0,0.5,0.1,0.8,0.1c1.7,0,3.3-1.1,4.7-2.1
				c1.6-1.2,3-2.6,4.4-4.1C108.3,14.1,109.1,13.2,109.9,12.4C109.9,12.4,109.9,12.4,109.9,12.4z M111.2,11.6
				C111.2,11.6,111.1,11.6,111.2,11.6C111.1,11.6,111.2,11.6,111.2,11.6z"/>
			
				<linearGradient id="SVGID_15_" gradientUnits="userSpaceOnUse" x1="-2558.4224" y1="-515.3102" x2="-2551.4863" y2="-508.7271" gradientTransform="matrix(1 0 0 -1 2658.0801 -495.9171)">
				<stop  offset="0" style="stop-color:#F4B861;stop-opacity:0.4"/>
				<stop  offset="0.503" style="stop-color:#F4B861"/>
				<stop  offset="1" style="stop-color:#F4B861;stop-opacity:0.6"/>
			</linearGradient>
			<path class="st17" d="M109.9,12.4L109.9,12.4L109.9,12.4C109.9,12.4,109.9,12.4,109.9,12.4C109.9,12.4,109.9,12.4,109.9,12.4
				c0.1-0.1,0.9-1,1.8-0.4c0,0-0.1-0.1-0.1-0.1c-0.1-0.1-0.2-0.2-0.3-0.2l0,0c-0.5-0.3-0.9-0.5-1.4-0.8c-0.5-0.3-0.9-0.5-1.4-0.8
				c-0.2-0.1-0.3-0.1-0.5-0.1h0c0,0,0,0,0,0c0,0,0,0,0,0c0,0,0,0,0,0c0,0,0,0,0,0c0,0,0,0,0,0c0,0,0,0,0,0c0,0-0.1,0-0.1,0
				c0,0,0,0,0,0c0,0,0,0,0,0c0,0,0,0-0.1,0c0,0,0,0,0,0c0,0,0,0-0.1,0c0,0,0,0,0,0c0,0,0,0,0,0c0,0,0,0-0.1,0c0,0,0,0,0,0
				c0,0-0.1,0-0.1,0.1c0,0,0,0,0,0c0,0,0,0-0.1,0.1c0,0,0,0,0,0c0,0,0,0-0.1,0c0,0,0,0,0,0c0,0,0,0,0,0c-0.1,0-0.1,0.1-0.2,0.1
				c0,0,0,0,0,0c-0.1,0.1-0.1,0.1-0.2,0.2c-1.1,1.2-2.2,2.5-3.4,3.7c-0.1,0.1-0.2,0.2-0.3,0.3c0,0,0,0,0,0c-0.1,0.1-0.2,0.2-0.3,0.3
				c0,0,0,0,0,0c-0.1,0.1-0.2,0.2-0.3,0.3c0,0,0,0,0,0c-0.1,0.1-0.2,0.2-0.3,0.3c0,0,0,0-0.1,0.1c-0.1,0.1-0.2,0.2-0.3,0.3
				c0,0,0,0,0,0c-0.1,0.1-0.2,0.2-0.3,0.3c0,0,0,0-0.1,0.1c-0.1,0.1-0.2,0.2-0.3,0.3c0,0,0,0,0,0c-0.1,0.1-0.2,0.2-0.3,0.2
				c0,0,0,0-0.1,0.1c-0.1,0.1-0.2,0.2-0.3,0.3c0,0,0,0-0.1,0c-0.1,0.1-0.2,0.2-0.3,0.2c0,0,0,0-0.1,0c-0.1,0.1-0.2,0.2-0.3,0.3
				c0,0-0.1,0-0.1,0.1c-0.1,0.1-0.2,0.1-0.3,0.2c0,0,0,0-0.1,0c-0.1,0.1-0.2,0.1-0.3,0.2c0,0-0.1,0-0.1,0c-0.1,0.1-0.2,0.1-0.3,0.1
				c0,0-0.1,0-0.1,0.1c-0.1,0.1-0.2,0.1-0.3,0.2c0,0,0,0,0,0c-0.1,0.1-0.2,0.1-0.3,0.2c0,0-0.1,0-0.1,0.1c0,0-0.1,0-0.1,0.1
				c0,0-0.1,0-0.1,0.1c0,0-0.1,0-0.1,0c0,0-0.1,0-0.1,0c0,0-0.1,0-0.1,0c0,0-0.1,0-0.1,0c0,0-0.1,0-0.1,0c-0.1,0-0.1,0-0.2,0
				c0,0-0.1,0-0.1,0c-0.1,0-0.1,0-0.2,0c0,0,0,0-0.1,0c-0.1,0-0.2,0-0.3,0c0,0-0.1,0-0.1,0c-0.1,0-0.1,0-0.2,0c-0.1,0-0.2,0-0.3,0
				c0.4,0.5,1.2,1.4,2.2,1.6c0,0-0.1,0-0.1,0c0.1,0,0.2,0.1,0.3,0.1c0.2,0,0.5,0.1,0.8,0.1c1.7,0,3.3-1.1,4.7-2.1
				c1.6-1.2,3-2.6,4.4-4.1C108.3,14.1,109.1,13.2,109.9,12.4C109.9,12.4,109.9,12.4,109.9,12.4z M111.2,11.6
				C111.2,11.6,111.1,11.6,111.2,11.6C111.1,11.6,111.2,11.6,111.2,11.6z"/>
		</g>
		<g>
			<path class="st8" d="M120.4,16.7C120.4,16.7,120.4,16.7,120.4,16.7l-2.8-1.5c0,0-0.1,0-0.1,0l0,0c0,0,0,0,0,0h0c0,0,0,0,0,0
				c0,0,0,0,0,0c0,0,0,0,0,0c0,0,0,0,0,0c-0.1,0.1-0.2,0.2-0.4,0.2c0,0,0,0,0,0c0,0-0.1,0.1-0.1,0.1c0,0,0,0,0,0
				c-0.1,0-0.1,0.1-0.2,0.1c0,0,0,0,0,0c0,0-0.1,0-0.1,0.1c0,0,0,0-0.1,0c0,0-0.1,0-0.1,0.1c0,0,0,0,0,0c0,0-0.1,0-0.1,0
				c0,0,0,0-0.1,0c0,0-0.1,0-0.1,0c0,0,0,0-0.1,0c0,0-0.1,0-0.1,0c0,0,0,0-0.1,0c0,0-0.1,0-0.1,0c0,0,0,0-0.1,0c0,0-0.1,0-0.1,0
				c0,0-0.1,0-0.1,0c0,0,0,0-0.1,0c0,0-0.1,0-0.1,0c0,0-0.1,0-0.1,0c0,0-0.1,0-0.1,0c0,0-0.1,0-0.1,0c0,0-0.1,0-0.1,0c0,0,0,0-0.1,0
				c0.5,0.5,1.7,1.6,2.6,1.7c0.1,0,0.1,0,0.2,0c0.9,0,1.9-0.4,2.7-1C120.5,16.8,120.5,16.7,120.4,16.7z"/>
			
				<linearGradient id="SVGID_16_" gradientUnits="userSpaceOnUse" x1="-2541.761" y1="-513.8369" x2="-2540.0095" y2="-511.9938" gradientTransform="matrix(1 0 0 -1 2658.0801 -495.9171)">
				<stop  offset="0" style="stop-color:#E9541F"/>
				<stop  offset="0.9879" style="stop-color:#E9541F;stop-opacity:0"/>
			</linearGradient>
			<path class="st18" d="M120.4,16.7C120.4,16.7,120.4,16.7,120.4,16.7l-2.8-1.5c0,0-0.1,0-0.1,0l0,0c0,0,0,0,0,0h0c0,0,0,0,0,0
				c0,0,0,0,0,0c0,0,0,0,0,0c0,0,0,0,0,0c-0.1,0.1-0.2,0.2-0.4,0.2c0,0,0,0,0,0c0,0-0.1,0.1-0.1,0.1c0,0,0,0,0,0
				c-0.1,0-0.1,0.1-0.2,0.1c0,0,0,0,0,0c0,0-0.1,0-0.1,0.1c0,0,0,0-0.1,0c0,0-0.1,0-0.1,0.1c0,0,0,0,0,0c0,0-0.1,0-0.1,0
				c0,0,0,0-0.1,0c0,0-0.1,0-0.1,0c0,0,0,0-0.1,0c0,0-0.1,0-0.1,0c0,0,0,0-0.1,0c0,0-0.1,0-0.1,0c0,0,0,0-0.1,0c0,0-0.1,0-0.1,0
				c0,0-0.1,0-0.1,0c0,0,0,0-0.1,0c0,0-0.1,0-0.1,0c0,0-0.1,0-0.1,0c0,0-0.1,0-0.1,0c0,0-0.1,0-0.1,0c0,0-0.1,0-0.1,0c0,0,0,0-0.1,0
				c0.5,0.5,1.7,1.6,2.6,1.7c0.1,0,0.1,0,0.2,0c0.9,0,1.9-0.4,2.7-1C120.5,16.8,120.5,16.7,120.4,16.7z"/>
		</g>
		<g>
			<path class="st1" d="M114.9,16.2L114.9,16.2c-0.1,0-0.1-0.1-0.1-0.2c0,0,0,0,0,0s0,0,0,0c0,0-0.1-0.1-0.1-0.1
				c-1-1.1-1.7-2.6-2.8-3.7c-0.1-0.1-0.2-0.2-0.2-0.2c-0.9-0.7-1.7,0.3-1.8,0.4c0,0,0,0,0,0c0,0,0,0,0.1-0.1c0,0,0,0,0,0
				c0.9,1.3,1.7,2.6,3,3.4c0.1,0.1,0.2,0.1,0.3,0.2c0.5,0.3,0.9,0.5,1.4,0.8c0.5,0.3,0.9,0.5,1.4,0.8c0,0,0,0-0.1,0
				c0.2,0.1,0.4,0.2,0.6,0.3c0.2,0.1,0.4,0.1,0.5,0.1c0.1,0,0.2,0,0.3,0C116.6,17.8,115.3,16.6,114.9,16.2z"/>
			
				<linearGradient id="SVGID_17_" gradientUnits="userSpaceOnUse" x1="-2547.2" y1="-508.0916" x2="-2545.5244" y2="-509.9133" gradientTransform="matrix(1 0 0 -1 2658.0801 -495.9171)">
				<stop  offset="0" style="stop-color:#B51E33"/>
				<stop  offset="1" style="stop-color:#B51E33;stop-opacity:0"/>
			</linearGradient>
			<path class="st19" d="M114.9,16.2L114.9,16.2c-0.1,0-0.1-0.1-0.1-0.2c0,0,0,0,0,0s0,0,0,0c0,0-0.1-0.1-0.1-0.1
				c-1-1.1-1.7-2.6-2.8-3.7c-0.1-0.1-0.2-0.2-0.2-0.2c-0.9-0.7-1.7,0.3-1.8,0.4c0,0,0,0,0,0c0,0,0,0,0.1-0.1c0,0,0,0,0,0
				c0.9,1.3,1.7,2.6,3,3.4c0.1,0.1,0.2,0.1,0.3,0.2c0.5,0.3,0.9,0.5,1.4,0.8c0.5,0.3,0.9,0.5,1.4,0.8c0,0,0,0-0.1,0
				c0.2,0.1,0.4,0.2,0.6,0.3c0.2,0.1,0.4,0.1,0.5,0.1c0.1,0,0.2,0,0.3,0C116.6,17.8,115.3,16.6,114.9,16.2z"/>
			
				<linearGradient id="SVGID_18_" gradientUnits="userSpaceOnUse" x1="-2543.554" y1="-512.0533" x2="-2544.9431" y2="-510.5176" gradientTransform="matrix(1 0 0 -1 2658.0801 -495.9171)">
				<stop  offset="0" style="stop-color:#CD132E"/>
				<stop  offset="0.5514" style="stop-color:#BB1C31;stop-opacity:0.4486"/>
				<stop  offset="1" style="stop-color:#B51E33;stop-opacity:0"/>
			</linearGradient>
			<path class="st20" d="M114.9,16.2L114.9,16.2c-0.1,0-0.1-0.1-0.1-0.2c0,0,0,0,0,0s0,0,0,0c0,0-0.1-0.1-0.1-0.1
				c-1-1.1-1.7-2.6-2.8-3.7c-0.1-0.1-0.2-0.2-0.2-0.2c-0.9-0.7-1.7,0.3-1.8,0.4c0,0,0,0,0,0c0,0,0,0,0.1-0.1c0,0,0,0,0,0
				c0.9,1.3,1.7,2.6,3,3.4c0.1,0.1,0.2,0.1,0.3,0.2c0.5,0.3,0.9,0.5,1.4,0.8c0.5,0.3,0.9,0.5,1.4,0.8c0,0,0,0-0.1,0
				c0.2,0.1,0.4,0.2,0.6,0.3c0.2,0.1,0.4,0.1,0.5,0.1c0.1,0,0.2,0,0.3,0C116.6,17.8,115.3,16.6,114.9,16.2z"/>
		</g>
		<g>
			<path class="st8" d="M149.2,11c0,0,0.1,0,0.2-0.1c1-0.5,1.9,0.1,2.3,0.6c-0.2-0.2-0.5-0.4-0.7-0.6c0,0,0,0,0.1,0l-2.8-1.5
				c-0.2-0.1-0.3-0.2-0.5-0.2c-0.2,0-0.3-0.1-0.5-0.1c0,0,0,0,0,0c0,0,0,0-0.1,0c0,0-0.1,0-0.1,0c0,0-0.1,0-0.1,0c0,0-0.1,0-0.1,0
				c0,0,0,0,0,0c0,0,0,0-0.1,0c0,0-0.1,0-0.1,0c0,0-0.1,0-0.1,0c0,0-0.1,0-0.1,0c0,0,0,0,0,0c0,0,0,0-0.1,0c0,0,0,0-0.1,0
				c-0.1,0-0.1,0.1-0.2,0.1c0,0,0,0,0,0c-0.1,0-0.1,0.1-0.2,0.1c0,0,0,0,0,0c0,0,0,0-0.1,0c0,0,0,0,0,0c-0.1,0-0.1,0.1-0.2,0.1
				c0,0,0,0,0,0c-0.1,0.1-0.1,0.1-0.2,0.2c0,0,0,0-0.1,0c-0.1,0-0.1,0.1-0.2,0.1c0,0,0,0-0.1,0c-0.1,0.1-0.1,0.1-0.2,0.2
				c0,0,0,0,0,0c0,0,0,0,0,0c-0.1,0.1-0.1,0.1-0.2,0.2c0,0,0,0-0.1,0.1c-0.1,0.1-0.1,0.1-0.2,0.2c-0.5,0.5-0.9,1-1.3,1.6
				c-0.2,2.1-0.8,6.1,0.6,4.9c0.4-0.3,0.7-0.9,0.8-1.1c1-1.4,1.9-3,3.1-4.2c0.4-0.4,1-0.9,1.6-1.1c0,0,0,0,0.1,0
				C149.3,11,149.2,11,149.2,11z"/>
			
				<linearGradient id="SVGID_19_" gradientUnits="userSpaceOnUse" x1="-2514.2722" y1="-513.3992" x2="-2511.5886" y2="-509.3948" gradientTransform="matrix(1 0 0 -1 2658.0801 -495.9171)">
				<stop  offset="0" style="stop-color:#E9541F"/>
				<stop  offset="0.9879" style="stop-color:#E9541F;stop-opacity:0"/>
			</linearGradient>
			<path class="st21" d="M149.2,11c0,0,0.1,0,0.2-0.1c1-0.5,1.9,0.1,2.3,0.6c-0.2-0.2-0.5-0.4-0.7-0.6c0,0,0,0,0.1,0l-2.8-1.5
				c-0.2-0.1-0.3-0.2-0.5-0.2c-0.2,0-0.3-0.1-0.5-0.1c0,0,0,0,0,0c0,0,0,0-0.1,0c0,0-0.1,0-0.1,0c0,0-0.1,0-0.1,0c0,0-0.1,0-0.1,0
				c0,0,0,0,0,0c0,0,0,0-0.1,0c0,0-0.1,0-0.1,0c0,0-0.1,0-0.1,0c0,0-0.1,0-0.1,0c0,0,0,0,0,0c0,0,0,0-0.1,0c0,0,0,0-0.1,0
				c-0.1,0-0.1,0.1-0.2,0.1c0,0,0,0,0,0c-0.1,0-0.1,0.1-0.2,0.1c0,0,0,0,0,0c0,0,0,0-0.1,0c0,0,0,0,0,0c-0.1,0-0.1,0.1-0.2,0.1
				c0,0,0,0,0,0c-0.1,0.1-0.1,0.1-0.2,0.2c0,0,0,0-0.1,0c-0.1,0-0.1,0.1-0.2,0.1c0,0,0,0-0.1,0c-0.1,0.1-0.1,0.1-0.2,0.2
				c0,0,0,0,0,0c0,0,0,0,0,0c-0.1,0.1-0.1,0.1-0.2,0.2c0,0,0,0-0.1,0.1c-0.1,0.1-0.1,0.1-0.2,0.2c-0.5,0.5-0.9,1-1.3,1.6
				c-0.2,2.1-0.8,6.1,0.6,4.9c0.4-0.3,0.7-0.9,0.8-1.1c1-1.4,1.9-3,3.1-4.2c0.4-0.4,1-0.9,1.6-1.1c0,0,0,0,0.1,0
				C149.3,11,149.2,11,149.2,11z"/>
			
				<linearGradient id="SVGID_20_" gradientUnits="userSpaceOnUse" x1="-2512.699" y1="-511.0517" x2="-2510.0154" y2="-507.0473" gradientTransform="matrix(1 0 0 -1 2658.0801 -495.9171)">
				<stop  offset="0" style="stop-color:#F4B861;stop-opacity:0.4"/>
				<stop  offset="0.503" style="stop-color:#F4B861"/>
				<stop  offset="1" style="stop-color:#F4B861;stop-opacity:0.6"/>
			</linearGradient>
			<path class="st22" d="M149.2,11c0,0,0.1,0,0.2-0.1c1-0.5,1.9,0.1,2.3,0.6c-0.2-0.2-0.5-0.4-0.7-0.6c0,0,0,0,0.1,0l-2.8-1.5
				c-0.2-0.1-0.3-0.2-0.5-0.2c-0.2,0-0.3-0.1-0.5-0.1c0,0,0,0,0,0c0,0,0,0-0.1,0c0,0-0.1,0-0.1,0c0,0-0.1,0-0.1,0c0,0-0.1,0-0.1,0
				c0,0,0,0,0,0c0,0,0,0-0.1,0c0,0-0.1,0-0.1,0c0,0-0.1,0-0.1,0c0,0-0.1,0-0.1,0c0,0,0,0,0,0c0,0,0,0-0.1,0c0,0,0,0-0.1,0
				c-0.1,0-0.1,0.1-0.2,0.1c0,0,0,0,0,0c-0.1,0-0.1,0.1-0.2,0.1c0,0,0,0,0,0c0,0,0,0-0.1,0c0,0,0,0,0,0c-0.1,0-0.1,0.1-0.2,0.1
				c0,0,0,0,0,0c-0.1,0.1-0.1,0.1-0.2,0.2c0,0,0,0-0.1,0c-0.1,0-0.1,0.1-0.2,0.1c0,0,0,0-0.1,0c-0.1,0.1-0.1,0.1-0.2,0.2
				c0,0,0,0,0,0c0,0,0,0,0,0c-0.1,0.1-0.1,0.1-0.2,0.2c0,0,0,0-0.1,0.1c-0.1,0.1-0.1,0.1-0.2,0.2c-0.5,0.5-0.9,1-1.3,1.6
				c-0.2,2.1-0.8,6.1,0.6,4.9c0.4-0.3,0.7-0.9,0.8-1.1c1-1.4,1.9-3,3.1-4.2c0.4-0.4,1-0.9,1.6-1.1c0,0,0,0,0.1,0
				C149.3,11,149.2,11,149.2,11z"/>
		</g>
		<g>
			<path class="st1" d="M152.3,12.3c0,0-0.1-0.1-0.1-0.1c-0.1-0.1-0.1-0.2-0.2-0.2c0,0,0,0,0,0c-0.1-0.1-0.2-0.3-0.3-0.4
				c-0.4-0.5-1.3-1.1-2.3-0.6c0,0-0.1,0-0.1,0c0.2,0.4,0.4,0.8,0.6,1.2c0.1,0.4,0.3,0.7,0.4,1.1c0,0.2,0.1,0.4,0.2,0.5
				c0,0,0,0,0.1,0l2.8,1.5c0,0,0,0,0,0c0,0,0.1,0,0.1,0c0,0,0.1,0,0.1,0C152.7,15.6,152.9,13.3,152.3,12.3z"/>
			
				<linearGradient id="SVGID_21_" gradientUnits="userSpaceOnUse" x1="-2507.5066" y1="-506.3258" x2="-2506.6729" y2="-508.851" gradientTransform="matrix(1 0 0 -1 2658.0801 -495.9171)">
				<stop  offset="0" style="stop-color:#B51E33"/>
				<stop  offset="1" style="stop-color:#B51E33;stop-opacity:0"/>
			</linearGradient>
			<path class="st23" d="M152.3,12.3c0,0-0.1-0.1-0.1-0.1c-0.1-0.1-0.1-0.2-0.2-0.2c0,0,0,0,0,0c-0.1-0.1-0.2-0.3-0.3-0.4
				c-0.4-0.5-1.3-1.1-2.3-0.6c0,0-0.1,0-0.1,0c0.2,0.4,0.4,0.8,0.6,1.2c0.1,0.4,0.3,0.7,0.4,1.1c0,0.2,0.1,0.4,0.2,0.5
				c0,0,0,0,0.1,0l2.8,1.5c0,0,0,0,0,0c0,0,0.1,0,0.1,0c0,0,0.1,0,0.1,0C152.7,15.6,152.9,13.3,152.3,12.3z"/>
			
				<linearGradient id="SVGID_22_" gradientUnits="userSpaceOnUse" x1="-2506.0581" y1="-510.496" x2="-2506.4805" y2="-509.3871" gradientTransform="matrix(1 0 0 -1 2658.0801 -495.9171)">
				<stop  offset="0" style="stop-color:#CD132E"/>
				<stop  offset="0.5514" style="stop-color:#BB1C31;stop-opacity:0.4486"/>
				<stop  offset="1" style="stop-color:#B51E33;stop-opacity:0"/>
			</linearGradient>
			<path class="st24" d="M152.3,12.3c0,0-0.1-0.1-0.1-0.1c-0.1-0.1-0.1-0.2-0.2-0.2c0,0,0,0,0,0c-0.1-0.1-0.2-0.3-0.3-0.4
				c-0.4-0.5-1.3-1.1-2.3-0.6c0,0-0.1,0-0.1,0c0.2,0.4,0.4,0.8,0.6,1.2c0.1,0.4,0.3,0.7,0.4,1.1c0,0.2,0.1,0.4,0.2,0.5
				c0,0,0,0,0.1,0l2.8,1.5c0,0,0,0,0,0c0,0,0.1,0,0.1,0c0,0,0.1,0,0.1,0C152.7,15.6,152.9,13.3,152.3,12.3z"/>
		</g>
		<g>
			<path class="st8" d="M162,12.3C162,12.2,161.9,12.2,162,12.3c-0.2-0.1-0.3-0.2-0.5-0.3c0,0,0,0,0.1,0l-2.8-1.5
				c-0.3-0.2-0.6-0.3-1-0.4c-0.3-0.1-0.5-0.1-0.8-0.1c0,0,0,0,0,0c0,0-0.1,0-0.1,0c0,0,0,0-0.1,0c-0.1,0-0.1,0-0.2,0c0,0,0,0,0,0
				c-0.1,0-0.1,0-0.2,0c0,0-0.1,0-0.1,0c0,0-0.1,0-0.1,0c0,0,0,0,0,0c0,0-0.1,0-0.1,0c0,0-0.1,0-0.1,0c0,0-0.1,0-0.1,0
				c0,0-0.1,0-0.1,0c0,0-0.1,0-0.1,0c0,0-0.1,0-0.1,0c0,0-0.1,0-0.1,0c0,0-0.1,0-0.1,0c0,0,0,0,0,0c-0.1,0-0.2,0.1-0.3,0.1
				c0,0,0,0,0,0c-0.1,0-0.1,0.1-0.2,0.1c0,0,0,0-0.1,0c-0.1,0-0.2,0.1-0.2,0.1c0,0,0,0,0,0c-0.1,0-0.2,0.1-0.2,0.2c0,0,0,0,0,0
				c0,0,0,0,0,0c-0.1,0-0.1,0.1-0.2,0.1c0,0,0,0-0.1,0c-0.1,0-0.2,0.1-0.2,0.2c-0.4,0.3-0.9,0.7-1.3,1.1c0,0,0,0,0,0c0,0,0,0,0-0.1
				c0.5,1,0.3,3.3,1.3,3c0.1,0,0.3-0.1,0.3-0.2c1.1-0.7,2-1.9,3.2-2.6c0.8-0.5,1.6-0.9,2.6-0.9C159.7,11.6,161,11.6,162,12.3z"/>
			
				<linearGradient id="SVGID_23_" gradientUnits="userSpaceOnUse" x1="-2504.9497" y1="-511.2641" x2="-2501.4634" y2="-508.6151" gradientTransform="matrix(1 0 0 -1 2658.0801 -495.9171)">
				<stop  offset="0" style="stop-color:#E9541F"/>
				<stop  offset="0.9879" style="stop-color:#E9541F;stop-opacity:0"/>
			</linearGradient>
			<path class="st25" d="M162,12.3C162,12.2,161.9,12.2,162,12.3c-0.2-0.1-0.3-0.2-0.5-0.3c0,0,0,0,0.1,0l-2.8-1.5
				c-0.3-0.2-0.6-0.3-1-0.4c-0.3-0.1-0.5-0.1-0.8-0.1c0,0,0,0,0,0c0,0-0.1,0-0.1,0c0,0,0,0-0.1,0c-0.1,0-0.1,0-0.2,0c0,0,0,0,0,0
				c-0.1,0-0.1,0-0.2,0c0,0-0.1,0-0.1,0c0,0-0.1,0-0.1,0c0,0,0,0,0,0c0,0-0.1,0-0.1,0c0,0-0.1,0-0.1,0c0,0-0.1,0-0.1,0
				c0,0-0.1,0-0.1,0c0,0-0.1,0-0.1,0c0,0-0.1,0-0.1,0c0,0-0.1,0-0.1,0c0,0-0.1,0-0.1,0c0,0,0,0,0,0c-0.1,0-0.2,0.1-0.3,0.1
				c0,0,0,0,0,0c-0.1,0-0.1,0.1-0.2,0.1c0,0,0,0-0.1,0c-0.1,0-0.2,0.1-0.2,0.1c0,0,0,0,0,0c-0.1,0-0.2,0.1-0.2,0.2c0,0,0,0,0,0
				c0,0,0,0,0,0c-0.1,0-0.1,0.1-0.2,0.1c0,0,0,0-0.1,0c-0.1,0-0.2,0.1-0.2,0.2c-0.4,0.3-0.9,0.7-1.3,1.1c0,0,0,0,0,0c0,0,0,0,0-0.1
				c0.5,1,0.3,3.3,1.3,3c0.1,0,0.3-0.1,0.3-0.2c1.1-0.7,2-1.9,3.2-2.6c0.8-0.5,1.6-0.9,2.6-0.9C159.7,11.6,161,11.6,162,12.3z"/>
			
				<linearGradient id="SVGID_24_" gradientUnits="userSpaceOnUse" x1="-2502.9883" y1="-509.7738" x2="-2499.502" y2="-507.1248" gradientTransform="matrix(1 0 0 -1 2658.0801 -495.9171)">
				<stop  offset="0" style="stop-color:#F4B861;stop-opacity:0.4"/>
				<stop  offset="0.503" style="stop-color:#F4B861"/>
				<stop  offset="1" style="stop-color:#F4B861;stop-opacity:0.6"/>
			</linearGradient>
			<path class="st26" d="M162,12.3C162,12.2,161.9,12.2,162,12.3c-0.2-0.1-0.3-0.2-0.5-0.3c0,0,0,0,0.1,0l-2.8-1.5
				c-0.3-0.2-0.6-0.3-1-0.4c-0.3-0.1-0.5-0.1-0.8-0.1c0,0,0,0,0,0c0,0-0.1,0-0.1,0c0,0,0,0-0.1,0c-0.1,0-0.1,0-0.2,0c0,0,0,0,0,0
				c-0.1,0-0.1,0-0.2,0c0,0-0.1,0-0.1,0c0,0-0.1,0-0.1,0c0,0,0,0,0,0c0,0-0.1,0-0.1,0c0,0-0.1,0-0.1,0c0,0-0.1,0-0.1,0
				c0,0-0.1,0-0.1,0c0,0-0.1,0-0.1,0c0,0-0.1,0-0.1,0c0,0-0.1,0-0.1,0c0,0-0.1,0-0.1,0c0,0,0,0,0,0c-0.1,0-0.2,0.1-0.3,0.1
				c0,0,0,0,0,0c-0.1,0-0.1,0.1-0.2,0.1c0,0,0,0-0.1,0c-0.1,0-0.2,0.1-0.2,0.1c0,0,0,0,0,0c-0.1,0-0.2,0.1-0.2,0.2c0,0,0,0,0,0
				c0,0,0,0,0,0c-0.1,0-0.1,0.1-0.2,0.1c0,0,0,0-0.1,0c-0.1,0-0.2,0.1-0.2,0.2c-0.4,0.3-0.9,0.7-1.3,1.1c0,0,0,0,0,0c0,0,0,0,0-0.1
				c0.5,1,0.3,3.3,1.3,3c0.1,0,0.3-0.1,0.3-0.2c1.1-0.7,2-1.9,3.2-2.6c0.8-0.5,1.6-0.9,2.6-0.9C159.7,11.6,161,11.6,162,12.3z"/>
		</g>
		<g>
			<path class="st1" d="M161.7,12.1c-0.5-0.4-1.2-0.3-1.2-0.3c0,0,0,0,0,0c0,0,0,0,0,0c0.6,0.6,0.9,1.5,1.3,2.3l1.5,0.8
				c0,0,0.1,0,0.1-0.1C163.1,13.9,162.6,12.7,161.7,12.1z"/>
			
				<linearGradient id="SVGID_25_" gradientUnits="userSpaceOnUse" x1="-2497.5894" y1="-509.2208" x2="-2494.6328" y2="-509.2208" gradientTransform="matrix(1 0 0 -1 2658.0801 -495.9171)">
				<stop  offset="0" style="stop-color:#B51E33"/>
				<stop  offset="1" style="stop-color:#B51E33;stop-opacity:0"/>
			</linearGradient>
			<path class="st27" d="M161.7,12.1c-0.5-0.4-1.2-0.3-1.2-0.3c0,0,0,0,0,0c0,0,0,0,0,0c0.6,0.6,0.9,1.5,1.3,2.3l1.5,0.8
				c0,0,0.1,0,0.1-0.1C163.1,13.9,162.6,12.7,161.7,12.1z"/>
		</g>
		<g>
			<path class="st8" d="M105.9,3.5C105.9,3.5,105.9,3.5,105.9,3.5c1.1,0.6,2.1,1.2,3.1,1.7l0,0c0,0,0,0,0.1,0c0.1,0,0.2-0.1,0.2-0.1
				c-0.2-1-0.6-1.8-1.3-2.5c-0.7-0.7-1.9-0.8-2.7-0.8C105.6,2.3,105.8,2.9,105.9,3.5z M109,5.2C109,5.2,109,5.2,109,5.2
				C109,5.2,109,5.2,109,5.2z"/>
			
				<linearGradient id="SVGID_26_" gradientUnits="userSpaceOnUse" x1="-2552.8464" y1="-499.3982" x2="-2548.8291" y2="-499.3982" gradientTransform="matrix(1 0 0 -1 2658.0801 -495.9171)">
				<stop  offset="0" style="stop-color:#E9541F"/>
				<stop  offset="0.9879" style="stop-color:#E9541F;stop-opacity:0"/>
			</linearGradient>
			<path class="st28" d="M105.9,3.5C105.9,3.5,105.9,3.5,105.9,3.5c1.1,0.6,2.1,1.2,3.1,1.7l0,0c0,0,0,0,0.1,0
				c0.1,0,0.2-0.1,0.2-0.1c-0.2-1-0.6-1.8-1.3-2.5c-0.7-0.7-1.9-0.8-2.7-0.8C105.6,2.3,105.8,2.9,105.9,3.5z M109,5.2
				C109,5.2,109,5.2,109,5.2C109,5.2,109,5.2,109,5.2z"/>
		</g>
	</g>
	<g>
		<g>
			<path class="st0" d="M139.4,37.2c0.2,0.1,0.6,0.3,1,0.3c0.6,0,0.9-0.3,0.9-0.7c0-0.4-0.2-0.6-0.8-0.8c-0.7-0.2-1.1-0.6-1.1-1.2
				c0-0.7,0.5-1.1,1.3-1.1c0.4,0,0.7,0.1,0.9,0.2l-0.1,0.4c-0.1-0.1-0.4-0.2-0.8-0.2c-0.6,0-0.8,0.3-0.8,0.6c0,0.4,0.3,0.6,0.8,0.8
				c0.7,0.3,1.1,0.6,1.1,1.2c0,0.6-0.5,1.2-1.5,1.2c-0.4,0-0.8-0.1-1.1-0.3L139.4,37.2z"/>
			<path class="st0" d="M147.9,34.2h-1.3v-0.5h3.1v0.5h-1.3v3.7h-0.5V34.2L147.9,34.2z"/>
			<path class="st0" d="M155.2,33.7v2.5c0,0.9,0.4,1.3,1,1.3c0.6,0,1-0.4,1-1.3v-2.5h0.5v2.4c0,1.3-0.7,1.8-1.6,1.8
				c-0.9,0-1.5-0.5-1.5-1.8v-2.5H155.2z"/>
			<path class="st0" d="M162.6,33.8c0.3,0,0.7-0.1,1.1-0.1c0.8,0,1.3,0.2,1.7,0.5c0.4,0.3,0.6,0.8,0.6,1.5c0,0.7-0.2,1.2-0.6,1.6
				c-0.4,0.4-1,0.6-1.8,0.6c-0.4,0-0.7,0-1,0L162.6,33.8L162.6,33.8L162.6,33.8z M163.1,37.4c0.1,0,0.3,0,0.5,0
				c1.1,0,1.8-0.6,1.8-1.8c0-1-0.5-1.6-1.7-1.6c-0.3,0-0.5,0-0.6,0.1L163.1,37.4L163.1,37.4z"/>
			<path class="st0" d="M171.4,33.7v4.2h-0.5v-4.2H171.4z"/>
			<path class="st0" d="M180,35.7c0,1.4-0.9,2.2-1.9,2.2c-1.1,0-1.9-0.9-1.9-2.1c0-1.3,0.8-2.2,1.9-2.2
				C179.3,33.6,180,34.5,180,35.7z M176.8,35.8c0,0.9,0.5,1.7,1.3,1.7c0.9,0,1.3-0.8,1.3-1.7c0-0.8-0.4-1.7-1.3-1.7
				C177.2,34.1,176.8,34.9,176.8,35.8z"/>
		</g>
		<g class="st29">
			<path class="st30" d="M129.4,24.8l0.9,3.3h0l1-3.3h0.6l1,3.3h0l0.9-3.3h0.6l-1.2,4.2h-0.6l-1-3.3h0l-1,3.3H130l-1.2-4.2H129.4z"
				/>
			<path class="st30" d="M139.9,27v1.4h2.2v0.5h-2.8v-4.2h2.7v0.5h-2.1v1.2h2V27H139.9L139.9,27z"/>
			<path class="st30" d="M146.9,28.9v-4.2h1.4c0.4,0,0.7,0.1,0.9,0.3c0.3,0.2,0.4,0.4,0.4,0.8c0,0.2-0.1,0.4-0.2,0.6
				c-0.1,0.2-0.3,0.3-0.5,0.3v0c0.3,0,0.5,0.1,0.7,0.3s0.3,0.4,0.3,0.7c0,0.4-0.1,0.7-0.4,0.9c-0.3,0.2-0.7,0.3-1.1,0.3L146.9,28.9
				L146.9,28.9z M147.4,25.2v1.3h0.8c0.2,0,0.4-0.1,0.6-0.2c0.2-0.1,0.2-0.3,0.2-0.5c0-0.4-0.3-0.6-0.9-0.6H147.4L147.4,25.2z
				 M147.4,27v1.4h0.7c0.2,0,0.3,0,0.5-0.1c0.1,0,0.3-0.1,0.4-0.2c0.1-0.1,0.2-0.3,0.2-0.4c0-0.5-0.3-0.7-1-0.7H147.4L147.4,27z"/>
		</g>
		<g>
			<polygon class="st0" points="132.6,28.9 131.6,25.6 131.6,25.6 131.6,25.6 130.6,28.9 130,28.9 128.8,24.8 129.4,24.8 
				130.3,28.1 130.3,28.1 130.3,28.1 131.3,24.8 131.9,24.8 132.9,28.1 132.9,28.1 132.9,28.1 133.8,24.8 134.4,24.8 133.2,28.9 			
				"/>
			<polygon class="st0" points="139.3,28.9 139.3,24.8 141.9,24.8 141.9,25.3 139.9,25.3 139.8,25.3 139.8,26.5 139.9,26.5 
				141.8,26.5 141.8,27 139.9,27 139.8,27 139.8,28.4 139.9,28.4 142,28.4 142,28.9 			"/>
			<path class="st0" d="M146.9,28.9v-4.1h1.4c0.4,0,0.7,0.1,0.9,0.2c0.2,0.2,0.4,0.4,0.4,0.8c0,0.2-0.1,0.4-0.2,0.6
				c-0.1,0.2-0.3,0.3-0.5,0.3l0,0l0,0c0.3,0,0.5,0.1,0.7,0.3c0.2,0.2,0.3,0.4,0.3,0.7c0,0.4-0.1,0.7-0.4,0.9
				c-0.3,0.2-0.7,0.3-1.1,0.3L146.9,28.9L146.9,28.9z M147.4,27v1.4l0,0h0.7c0.2,0,0.4,0,0.5-0.1c0.1,0,0.3-0.1,0.4-0.2
				c0.1-0.1,0.2-0.3,0.2-0.4c0-0.5-0.3-0.7-1-0.7L147.4,27L147.4,27z M147.4,25.2v1.3l0,0h0.8c0.2,0,0.4-0.1,0.6-0.2
				c0.2-0.1,0.2-0.3,0.2-0.5c0-0.4-0.3-0.6-0.9-0.6L147.4,25.2L147.4,25.2z"/>
		</g>
	</g>
</g>
</svg>
