<?xml version="1.0" encoding="utf-8"?>
<!-- Generator: Adobe Illustrator 22.0.1, SVG Export Plug-In . SVG Version: 6.00 Build 0)  -->
<svg version="1.1" id="Слой_1" xmlns="http://www.w3.org/2000/svg" xmlns:xlink="http://www.w3.org/1999/xlink" x="0px" y="0px"
	 viewBox="0 0 205 48.5" style="enable-background:new 0 0 205 48.5;" xml:space="preserve">
<style type="text/css">
	.st0{fill:#7BB926;}
	.st1{fill:#003268;}
</style>
<rect y="33.7" class="st0" width="205" height="6.5"/>
<rect y="42" class="st1" width="205" height="6.5"/>
<g>
	<g>
		<path class="st1" d="M18.2,31.6c-1.6,0-4.6,0-4.6,0h-0.3l-0.6-2.2H7.7L7,31.6c0,0-3.5,0-5.1,0C3.4,27,7.6,14.9,7.6,14.9h5.1
			C12.7,14.9,18.1,31.3,18.2,31.6z M10.1,20.4c-0.1,0-0.2,0-0.2,0C9.4,22.2,9,24,8.5,25.8c0.9,0,3,0,3,0S10.6,22.1,10.1,20.4z"/>
		<polygon class="st1" points="20.6,14.7 21.4,14.7 33.3,14.7 33.3,15.5 33.3,18 33.3,18.8 25.7,18.7 25.7,19.8 25.7,31.6 
			20.6,31.6 		"/>
	</g>
	<path class="st1" d="M36.6,14.7h6.6c3.9,0,7.3,1.3,7.3,5.6c0,4.1-3.4,5.9-7.2,5.9h-1.9v5.3h-4.7V14.7z M43,22.7
		c1.9,0,2.8-0.9,2.8-2.4c0-1.5-1-2.1-2.9-2.1h-1.6v4.5H43z"/>
	<path class="st1" d="M101.9,14.7h6.6c3.9,0,7.3,1.3,7.3,5.6c0,4.1-3.4,5.9-7.2,5.9h-1.9v5.3h-4.7V14.7z M108.4,22.7
		c1.9,0,2.8-0.9,2.8-2.4c0-1.5-1-2.1-2.9-2.1h-1.6v4.5H108.4z"/>
	<path class="st1" d="M52.2,23.1c0-5.3,3.2-8.3,7.8-8.3c4.7,0,7.8,3,7.8,8.3c0,5.3-3.2,8.5-7.8,8.5C55.4,31.6,52.2,28.4,52.2,23.1z
		 M63.3,23.1c0-2.9-1.2-4.6-3.3-4.6c-2,0-3.3,1.7-3.3,4.6c0,2.9,1.2,4.8,3.3,4.8C62.1,27.9,63.3,26,63.3,23.1z"/>
	<path class="st1" d="M135.8,14.7h12.4v3.7h-7.3v2.6h6.2v3.7h-6.2v3h7.6v3.7h-12.6V14.7z"/>
	<path class="st1" d="M151.7,14.7h4.9V21h5.5v-6.3h4.9v16.8h-4.9v-6.7h-5.5v6.7h-4.9V14.7z"/>
	<g>
		<path class="st1" d="M125.3,27.9c-2,0-3.2-1.8-3.2-4.8c0-2.9,1.2-4.6,3.2-4.6c1.6,0,2.7,1.1,3.1,3h4.5c-0.6-4.3-3.5-6.7-7.6-6.7
			c-4.6,0-7.7,3-7.7,8.3c0,5.3,3.1,8.5,7.7,8.5c4.1,0,7-2.5,7.6-6.7h-4.6C127.9,26.7,126.8,27.9,125.3,27.9z"/>
	</g>
	<path class="st1" d="M185.4,31.6c-1.6,0-4.6,0-4.6,0h-0.3l-0.6-2.2H175l-0.7,2.2c0,0-3.5,0-5.1,0c1.5-4.5,5.7-16.7,5.7-16.7h5.1
		C180,14.9,185.4,31.3,185.4,31.6z M177.4,20.4c-0.1,0-0.2,0-0.2,0c-0.5,1.8-0.9,3.5-1.4,5.4c0.9,0,3,0,3,0S177.8,22.1,177.4,20.4z"
		/>
	<g>
		<path class="st1" d="M189.9,14.9v5.4c0,1.9-0.1,3.7-0.4,4.9c-0.3,1.1-0.6,1.6-1.1,2c-0.3,0.3-1,0.4-1.5,0.6v3.8
			c2.4-0.2,4.2-0.4,5.5-2c1.4-1.8,2.1-5.2,2.1-9.2v-2h3.8v13.1h4.8V14.9H189.9z"/>
	</g>
	<polygon class="st1" points="76.4,27.3 77.7,24.1 84.5,24.1 80.2,13.9 73,31.6 69.2,31.6 82.4,0 85.7,0 99.4,31.6 87.7,31.6 
		85.9,27.3 	"/>
</g>
</svg>
