<?xml version="1.0" encoding="utf-8"?>
<!-- Generator: Adobe Illustrator 22.0.1, SVG Export Plug-In . SVG Version: 6.00 Build 0)  -->
<svg version="1.1" id="Слой_1" xmlns="http://www.w3.org/2000/svg" xmlns:xlink="http://www.w3.org/1999/xlink" x="0px" y="0px"
	 viewBox="0 0 51.1 50" style="enable-background:new 0 0 51.1 50;" xml:space="preserve">
<style type="text/css">
	.st0{fill:#344861;}
</style>
<g>
	<g>
		<path class="st0" d="M29.3,50h-7.4V26.7c-3.1-1.4-5.1-4.5-5.1-8c0-3.6,2.2-6.9,5.6-8.2l1-0.4v9h4.6v-9l1,0.4
			c3.4,1.4,5.5,4.6,5.5,8.2c0,3.5-2,6.5-5.1,8V50z M23.3,48.6h4.6V25.7l0.5-0.2c2.8-1.1,4.6-3.8,4.6-6.8c0-2.7-1.4-5-3.6-6.4v8.2
			h-7.5v-8.2c-2.3,1.3-3.7,3.7-3.7,6.4c0,3,1.8,5.7,4.7,6.9l0.5,0.2V48.6z"/>
	</g>
	<g>
		<path class="st0" d="M10.6,46.3L10.2,46c-1.9-1.4-3.6-3.2-5.1-5.1l-0.3-0.4l3.8-5.2c-0.8-1.4-1.5-3-1.9-4.6l-6.4-1l-0.1-0.5
			C0.1,27.9,0,26.7,0,25.6c0-1.2,0.1-2.4,0.3-3.6l0.1-0.5l6.4-1c0.4-1.6,1.1-3.1,1.9-4.6l-3.8-5.2l0.3-0.4c1.5-1.9,3.2-3.6,5.1-5.1
			l0.4-0.3l5.2,3.8c1.4-0.8,2.9-1.4,4.5-1.9l1-6.4L22,0.3c2.4-0.3,4.8-0.3,7.2,0l0.5,0.1l1,6.4c1.6,0.4,3.1,1.1,4.5,1.9l5.2-3.8
			l0.4,0.3c1.9,1.4,3.6,3.2,5.1,5.1l0.3,0.4l-3.8,5.2c0.8,1.4,1.5,3,1.9,4.5l6.4,1l0.1,0.5c0.2,1.2,0.3,2.4,0.3,3.7
			c0,1.2-0.1,2.4-0.2,3.5l-0.1,0.5l-6.4,1c-0.4,1.6-1.1,3.2-1.9,4.6l3.8,5.2L46,40.9c-1.4,1.9-3.1,3.6-5.1,5.1l-0.4,0.3l-5.2-3.8
			c-1,0.6-2,1-3.1,1.4l-0.5-1.4c1.1-0.4,2.2-0.9,3.2-1.5l0.4-0.3l5.1,3.7c1.5-1.2,2.9-2.5,4-4l-3.7-5.1l0.2-0.4
			c1-1.6,1.7-3.3,2.1-5.1l0.1-0.5l6.3-1c0.1-0.9,0.2-1.9,0.2-2.8c0-1-0.1-2-0.2-2.9l-6.3-1l-0.1-0.5c-0.4-1.8-1.1-3.5-2.1-5
			l-0.3-0.4l3.7-5.1c-1.2-1.5-2.6-2.9-4.1-4l-5.1,3.7l-0.4-0.2c-1.6-0.9-3.2-1.6-5-2.1l-0.5-0.1l-1-6.3c-1.9-0.2-3.8-0.2-5.7,0
			l-1,6.3L21.2,8c-1.8,0.4-3.4,1.1-5,2.1l-0.4,0.2l-5.1-3.7c-1.5,1.2-2.9,2.5-4.1,4.1l3.7,5.1l-0.3,0.4c-1,1.6-1.7,3.3-2.1,5
			l-0.1,0.5l-6.3,1c-0.1,1-0.2,1.9-0.2,2.9c0,0.9,0.1,1.9,0.2,2.8l6.3,1L8,29.9c0.4,1.8,1.1,3.5,2.1,5.1l0.2,0.4l-3.7,5.1
			c1.2,1.5,2.5,2.9,4,4l5.1-3.7l0.4,0.3c1,0.6,2.1,1.1,3.2,1.6L18.9,44c-1.1-0.4-2.1-0.9-3.1-1.4L10.6,46.3z"/>
	</g>
	<g>
		<path class="st0" d="M32.4,36.7l-0.8-1.2c3.5-2.1,5.6-5.8,5.6-9.9c0-2-0.5-4-1.5-5.7l1.3-0.7c1.1,2,1.7,4.2,1.7,6.4
			C38.6,30.2,36.3,34.3,32.4,36.7z"/>
	</g>
	<g>
		<path class="st0" d="M18.8,36.7c-3.9-2.4-6.3-6.6-6.3-11.2c0-2.3,0.6-4.5,1.7-6.4l1.3,0.7c-1,1.7-1.5,3.7-1.5,5.7
			c0,4.1,2.1,7.8,5.6,9.9L18.8,36.7z"/>
	</g>
</g>
</svg>
