<?xml version="1.0" encoding="utf-8"?>
<!-- Generator: Adobe Illustrator 22.0.1, SVG Export Plug-In . SVG Version: 6.00 Build 0)  -->
<svg version="1.1" id="Capa_1" xmlns="http://www.w3.org/2000/svg" xmlns:xlink="http://www.w3.org/1999/xlink" x="0px" y="0px"
	 viewBox="0 0 22 17.4" style="enable-background:new 0 0 22 17.4;" xml:space="preserve">
<style type="text/css">
	.st0{fill:#AEB3BB;}
</style>
<g>
	<g>
		<path class="st0" d="M22,0H0v17.4h22V0z M20.2,10.7l-3.7-2.9c-0.3-0.3-0.8-0.3-1.2,0l-4.1,3.6L5.8,5.3C5.6,5.1,5.4,5,5.1,5
			C4.8,5,4.6,5.1,4.4,5.3L1.8,8.1V1.8h18.4V10.7z"/>
	</g>
</g>
<g>
	<g>
		<path class="st0" d="M11,2.3c-1.6,0-2.9,1.3-2.9,2.9S9.4,8.2,11,8.2s2.9-1.3,2.9-2.9C13.9,3.6,12.6,2.3,11,2.3z"/>
	</g>
</g>
</svg>
