<?xml version="1.0" encoding="utf-8"?>
<!-- Generator: Adobe Illustrator 22.0.1, SVG Export Plug-In . SVG Version: 6.00 Build 0)  -->
<svg version="1.1" id="Capa_1" xmlns="http://www.w3.org/2000/svg" xmlns:xlink="http://www.w3.org/1999/xlink" x="0px" y="0px"
	 viewBox="0 0 22 22" style="enable-background:new 0 0 22 22;" xml:space="preserve">
<style type="text/css">
	.st0{fill:#84AD31;}
</style>
<g>
	<g>
		<path class="st0" d="M21.4,10.5l-9.9-9.9C11.1,0.2,10.5,0,9.9,0H2.2C1,0,0,1,0,2.2v7.7c0,0.6,0.2,1.2,0.6,1.6l9.9,9.9
			c0.4,0.4,0.9,0.6,1.6,0.6s1.2-0.2,1.6-0.6l7.7-7.7c0.4-0.4,0.6-1,0.6-1.6C22,11.5,21.8,10.9,21.4,10.5z M3.9,5.5
			c-0.9,0-1.6-0.7-1.6-1.6s0.7-1.6,1.6-1.6s1.6,0.7,1.6,1.6S4.8,5.5,3.9,5.5z"/>
	</g>
</g>
</svg>
