<?xml version="1.0" encoding="utf-8"?>
<!-- Generator: Adobe Illustrator 22.0.1, SVG Export Plug-In . SVG Version: 6.00 Build 0)  -->
<svg version="1.1" id="Слой_1" xmlns="http://www.w3.org/2000/svg" xmlns:xlink="http://www.w3.org/1999/xlink" x="0px" y="0px"
	 viewBox="0 0 16 16" style="enable-background:new 0 0 16 16;" xml:space="preserve">
<style type="text/css">
	.st0{fill:#222222;}
</style>
<title>B3D98B8E-BD84-4B5D-B1A1-375822A9808E</title>
<desc>Created with sketchtool.</desc>
<g id="design">
	<g id="Concept-_x2013_-1" transform="translate(-1335.000000, -24.000000)">
		<g id="header_1260px" transform="translate(180.000000, 0.000000)">
			<g id="header">
				<path id="search_icon" class="st0" d="M1168.1,36l2.9,2.9l-1,1l-2.9-2.9c-1.3,1-2.9,1.7-4.7,1.7c-4.1,0-7.4-3.3-7.4-7.4
					s3.3-7.4,7.4-7.4s7.4,3.3,7.4,7.4C1169.7,33.1,1169.1,34.8,1168.1,36z M1162.4,37.3c3.3,0,5.9-2.6,5.9-5.9s-2.6-5.9-5.9-5.9
					c-3.3,0-5.9,2.6-5.9,5.9S1159.1,37.3,1162.4,37.3z"/>
			</g>
		</g>
	</g>
</g>
</svg>
