<?xml version="1.0" encoding="utf-8"?>
<!-- Generator: Adobe Illustrator 22.0.1, SVG Export Plug-In . SVG Version: 6.00 Build 0)  -->
<svg version="1.1" id="Слой_1" xmlns="http://www.w3.org/2000/svg" xmlns:xlink="http://www.w3.org/1999/xlink" x="0px" y="0px"
	 viewBox="0 0 27.7 15" style="enable-background:new 0 0 27.7 15;" xml:space="preserve">
<style type="text/css">
	.st0{fill:#84AD31;}
</style>
<path class="st0" d="M13.5,14.9h1.7c0,0,0.5-0.1,0.8-0.3c0.2-0.2,0.2-0.7,0.2-0.7s0-2.1,1-2.4c1-0.3,2.3,2,3.7,2.9
	c1,0.7,1.8,0.5,1.8,0.5l3.7,0c0,0,1.9-0.1,1-1.6c-0.1-0.1-0.5-1.1-2.7-3c-2.3-2-2-1.7,0.8-5.2c1.7-2.2,2.4-3.5,2.2-4
	c-0.2-0.5-1.5-0.4-1.5-0.4l-4.2,0c0,0-0.3,0-0.5,0.1c-0.2,0.1-0.4,0.4-0.4,0.4s-0.7,1.7-1.5,3.1c-1.9,3-2.6,3.1-2.9,3
	c-0.7-0.4-0.5-1.7-0.5-2.7c0-2.9,0.5-4.1-0.9-4.4C14.8,0.1,14.5,0,13.3,0c-1.5,0-2.7,0-3.5,0.3C9.4,0.6,9,1.1,9.2,1.1
	c0.3,0,0.9,0.2,1.2,0.6c0.4,0.6,0.4,1.8,0.4,1.8s0.2,3.4-0.6,3.8C9.8,7.6,9,7,7.3,4.3C6.5,2.9,5.8,1.3,5.8,1.3S5.7,1.1,5.5,0.9
	C5.2,0.7,4.9,0.7,4.9,0.7l-4,0c0,0-0.6,0-0.8,0.3c-0.2,0.2,0,0.7,0,0.7S3.2,8.5,6.7,12C9.9,15.1,13.5,14.9,13.5,14.9L13.5,14.9z"/>
</svg>
